<?xml version="1.0" standalone="no"?>
<!DOCTYPE svg PUBLIC "-//W3C//DTD SVG 20010904//EN"
 "http://www.w3.org/TR/2001/REC-SVG-20010904/DTD/svg10.dtd">
<svg version="1.0" xmlns="http://www.w3.org/2000/svg"
 width="1280.000000pt" height="854.000000pt" viewBox="0 0 1280.000000 854.000000"
 preserveAspectRatio="xMidYMid meet">

<g transform="translate(0.000000,854.000000) scale(0.100000,-0.100000)"
fill="#000000" stroke="none">
<path d="M0 4270 l0 -4270 3695 0 3695 0 -5 43 c-5 45 -12 451 -19 1022 -4
322 -4 330 3 100 5 -137 11 -396 15 -575 3 -179 9 -385 12 -457 l6 -133 2699
0 2699 0 0 4270 0 4270 -6400 0 -6400 0 0 -4270z m6355 1592 c1 -13 -4 -22
-12 -22 -7 0 -16 0 -20 0 -6 0 -9 28 -4 44 4 15 35 -5 36 -22z m544 14 c6 -8
14 -37 18 -65 l6 -51 -41 0 c-34 0 -41 3 -44 23 -2 12 1 36 7 52 19 56 33 67
54 41z m-619 -60 l0 -63 -61 -7 c-91 -11 -95 2 -24 74 33 33 65 60 72 60 9 0
13 -19 13 -64z m310 25 c0 -15 5 -32 12 -39 16 -16 51 -16 45 1 -2 6 -11 11
-20 9 -22 -4 -29 12 -18 42 9 22 15 25 63 24 29 -1 57 -6 61 -12 6 -8 10 -7
14 2 9 22 25 13 19 -12 -4 -18 -1 -25 14 -29 24 -6 27 -45 4 -54 -9 -3 -25 -1
-35 6 -12 7 -19 7 -19 1 0 -5 -7 -10 -16 -10 -10 0 -14 6 -10 18 7 24 -27 62
-56 62 l-23 0 25 -13 c33 -16 38 -52 10 -67 -17 -9 -26 -8 -45 4 -18 12 -25
12 -28 3 -4 -9 -7 -9 -18 1 -7 6 -21 12 -31 12 -23 0 -23 13 -1 48 32 49 53
51 53 3z m-495 -36 l0 -60 -152 -3 -153 -3 0 66 0 66 153 -3 152 -3 0 -60z
m347 -27 c-4 -18 -68 -33 -113 -26 l-23 3 29 32 c17 18 46 43 65 56 l35 23 5
-35 c3 -20 4 -44 2 -53z m-2962 -19 c0 -35 -4 -49 -14 -49 -17 0 -28 79 -13
97 16 22 27 3 27 -48z m136 50 c4 -8 9 -8 17 0 30 30 71 -5 65 -56 -4 -36 -32
-52 -59 -35 -15 10 -24 10 -34 2 -16 -14 -62 -9 -56 5 2 6 12 9 23 7 11 -2 18
3 18 12 0 9 -9 16 -20 16 -14 0 -20 7 -20 23 0 13 3 27 7 30 10 11 51 8 59 -4z
m-218 -49 c-4 -63 -21 -69 -29 -10 -7 50 -4 60 17 60 12 0 14 -11 12 -50z
m132 15 c0 -8 -4 -15 -10 -15 -5 0 -10 7 -10 15 0 8 5 15 10 15 6 0 10 -7 10
-15z m6861 -32 c13 -16 12 -17 -3 -4 -10 7 -18 15 -18 17 0 8 8 3 21 -13z
m1139 -23 c-6 -11 -12 -20 -13 -20 -2 0 -3 9 -3 20 0 11 6 20 13 20 11 0 11
-5 3 -20z m-8000 0 c0 -5 -4 -10 -10 -10 -5 0 -10 5 -10 10 0 6 5 10 10 10 6
0 10 -4 10 -10z m-470 -160 l-7 -145 -1 110 c-2 93 6 193 13 183 1 -2 -1 -68
-5 -148z m7430 46 c-1 -20 -2 -20 -15 4 -19 33 -19 46 0 30 8 -7 15 -22 15
-34z m-47 -16 c4 -17 3 -19 -9 -9 -8 6 -14 18 -14 26 0 20 16 8 23 -17z m777
-179 c-1 -9 -6 -26 -13 -37 -9 -17 -17 -20 -34 -13 -26 10 -30 40 -8 62 18 19
55 11 55 -12z m-8163 -793 c-1 -145 -2 -27 -2 262 0 289 1 407 2 263 2 -145 2
-381 0 -525z m1465 519 c114 -52 179 -149 186 -277 7 -139 -58 -249 -186 -312
-59 -29 -75 -33 -147 -32 -104 1 -173 32 -244 109 -65 72 -85 131 -79 234 5
84 26 135 80 197 95 108 258 142 390 81z m1249 -97 c25 -14 25 -56 -1 -70 -45
-24 -86 44 -42 69 21 13 20 13 43 1z m173 -13 c26 -19 13 -57 -20 -57 -13 0
-24 -4 -24 -10 0 -5 20 -10 44 -10 l44 0 22 -61 c13 -33 26 -57 31 -52 4 4 16
33 26 63 17 47 23 55 47 58 16 2 33 -1 39 -7 7 -7 16 -7 30 0 28 15 67 -23 51
-49 -15 -24 -55 -28 -71 -6 -7 10 -14 16 -16 13 -2 -2 -20 -51 -41 -109 -45
-124 -65 -150 -115 -150 -53 0 -68 12 -53 45 9 20 17 25 32 20 34 -11 33 17
-4 98 -49 106 -64 103 -68 -10 l-3 -88 -32 -3 -31 -3 -7 90 c-4 50 -11 91 -16
91 -5 0 -9 14 -9 30 0 17 4 30 9 30 4 0 12 15 17 32 15 50 78 74 118 45z
m-937 -42 c27 -18 28 -24 9 -50 -12 -16 -17 -17 -44 -6 -39 16 -86 11 -90 -10
-2 -13 14 -22 65 -37 51 -16 72 -28 85 -49 l17 -28 1 62 c0 58 2 63 25 69 14
3 31 1 38 -4 8 -7 18 -7 27 -2 23 15 83 12 108 -6 12 -8 29 -29 38 -46 l16
-32 13 30 c37 88 175 94 226 10 67 -110 -67 -234 -179 -166 -18 11 -38 31 -44
45 l-11 25 -18 -29 c-29 -48 -62 -64 -119 -59 l-50 5 0 -39 c0 -38 -1 -39 -32
-36 l-33 3 -6 70 c-3 39 -6 62 -7 53 -3 -24 -48 -56 -89 -64 -41 -8 -101 8
-135 36 l-23 19 21 21 c21 21 23 21 53 5 41 -20 95 -17 99 8 4 18 1 20 -67 37
-77 20 -112 82 -80 141 25 47 130 60 186 24z m627 19 c9 -3 16 -17 16 -30 0
-25 -3 -25 95 -28 l40 -1 3 -117 3 -118 -36 0 -35 0 -2 58 c-1 31 -2 72 -3 90
0 23 -4 31 -13 27 -8 -3 -22 -5 -33 -5 -16 0 -19 -7 -19 -55 0 -55 0 -56 28
-53 24 3 27 0 27 -27 0 -29 -2 -30 -46 -33 -57 -4 -78 14 -81 66 -3 78 -5 94
-15 100 -18 13 -22 40 -8 59 8 10 15 28 15 40 0 28 29 40 64 27z m-2577 -1046
c-1 -73 -3 -14 -3 132 0 146 2 205 3 133 2 -73 2 -193 0 -265z m0 -635 c-1
-82 -3 -15 -3 147 0 162 2 229 3 148 2 -82 2 -214 0 -295z m0 -295 c-2 -29 -3
-8 -3 47 0 55 1 79 3 53 2 -26 2 -71 0 -100z m0 -130 c-3 -7 -5 -2 -5 12 0 14
2 19 5 13 2 -7 2 -19 0 -25z m4392 -441 c0 -82 -3 -146 -7 -143 -4 2 -8 143
-8 313 -1 264 0 285 6 143 4 -91 8 -232 9 -313z m-4392 371 c-3 -8 -6 -5 -6 6
-1 11 2 17 5 13 3 -3 4 -12 1 -19z m0 -60 c-3 -7 -5 -2 -5 12 0 14 2 19 5 13
2 -7 2 -19 0 -25z m0 -190 c-3 -8 -6 -5 -6 6 -1 11 2 17 5 13 3 -3 4 -12 1
-19z m2363 -73 c0 -16 -6 -25 -15 -25 -8 0 -15 -4 -15 -9 0 -5 7 -11 15 -15
19 -7 20 -46 0 -46 -10 0 -15 -16 -17 -62 -3 -60 -4 -63 -28 -63 -23 0 -25 4
-30 59 -3 33 -10 61 -17 63 -7 3 -9 -3 -6 -16 14 -55 -29 -111 -86 -111 -84 1
-121 92 -62 151 35 35 77 38 115 8 22 -17 26 -18 26 -4 0 8 7 18 15 21 8 4 15
14 15 24 0 27 28 50 61 50 24 0 29 -4 29 -25z m-867 -7 c14 -22 -7 -48 -33
-41 -20 5 -28 42 -13 57 11 11 35 3 46 -16z m-319 6 c13 -5 16 -25 16 -119 0
-103 -2 -113 -19 -118 -29 -7 -41 12 -41 63 l-1 45 -24 -55 c-18 -43 -28 -55
-46 -55 -24 0 -29 7 -58 75 l-20 45 0 -63 c-1 -63 -1 -63 -28 -60 l-28 3 -3
118 -3 117 38 0 c38 0 38 -1 67 -70 15 -38 31 -68 35 -66 3 2 17 34 31 70 21
57 31 70 62 75 3 0 13 -2 22 -5z m91 -24 c0 -18 -6 -26 -23 -28 -24 -4 -38 18
-28 44 3 9 15 14 28 12 17 -2 23 -10 23 -28z m83 -92 l3 -118 -31 0 -30 0 0
121 0 120 28 -3 27 -3 3 -117z m72 2 c0 -119 0 -120 -24 -120 -22 0 -23 4 -29
83 -4 45 -7 99 -7 120 0 35 2 37 30 37 l30 0 0 -120z m1794 69 c31 -25 33 -36
5 -44 l-21 -7 21 -15 c12 -8 21 -21 21 -29 0 -11 4 -12 19 -3 35 23 77 -15 51
-46 -17 -20 -47 -19 -59 2 -9 17 -10 17 -28 0 -25 -22 -81 -22 -105 0 -24 22
-23 43 4 43 l21 0 -21 23 c-12 13 -22 31 -22 39 0 20 46 58 70 58 10 0 29 -9
44 -21z m-496 -25 c30 -35 30 -87 -3 -119 -34 -35 -93 -34 -128 1 -25 25 -25
25 -32 4 -8 -25 -48 -42 -80 -34 -47 12 -71 64 -29 64 10 0 9 5 -6 20 -24 24
-25 38 -4 68 19 27 78 30 106 5 23 -21 23 -32 -2 -41 -20 -7 -20 -7 0 -20 17
-10 20 -10 20 6 0 24 28 62 54 72 32 14 79 3 104 -26z m173 15 c15 -15 19 -33
19 -84 l0 -65 -30 0 c-28 0 -29 1 -32 58 -2 43 -7 57 -18 57 -11 0 -16 -16
-20 -60 -5 -56 -7 -60 -30 -60 -24 0 -25 3 -28 74 -2 41 -1 79 1 85 3 7 30 12
62 13 44 1 61 -3 76 -18z m199 -73 c0 -118 -14 -141 -85 -141 -37 0 -51 5 -66
24 -24 29 -24 42 0 48 19 5 19 5 0 24 -27 27 -25 86 3 116 18 19 32 23 85 23
l63 0 0 -94z m-1426 44 c32 -31 28 -96 -7 -126 -91 -78 -201 43 -117 128 27
26 36 30 67 25 20 -4 46 -16 57 -27z m169 12 c8 -9 18 -35 21 -57 3 -22 5 -41
6 -42 0 0 9 1 20 4 19 5 19 7 5 23 -18 20 -20 61 -3 78 19 19 82 15 102 -7 20
-22 14 -41 -12 -41 -13 0 -12 -3 6 -16 26 -18 30 -65 7 -84 -25 -21 -85 -17
-105 8 -17 21 -18 21 -23 2 -3 -14 -14 -20 -31 -20 -25 0 -26 2 -26 55 0 42
-4 57 -16 62 -22 8 -34 -14 -34 -68 0 -38 -4 -48 -19 -52 -11 -3 -22 -2 -25 1
-7 7 -8 157 -1 164 3 2 29 5 59 6 39 1 58 -3 69 -16z m-565 -79 l3 -83 -31 0
-30 0 0 78 c0 85 4 94 35 90 18 -3 20 -11 23 -85z m232 1 l0 -85 -27 3 c-28 3
-28 4 -31 86 l-3 82 31 0 30 0 0 -86z m1468 -247 c2 -19 -1 -27 -12 -27 -9 0
-16 -4 -16 -10 0 -5 18 -10 40 -10 36 0 43 -4 62 -36 l21 -36 15 36 c12 30 19
36 43 36 16 0 29 -3 29 -7 0 -5 -20 -56 -46 -114 -38 -88 -50 -108 -70 -112
-33 -6 -37 5 -19 50 15 36 15 40 -6 86 -17 36 -28 47 -46 47 -22 0 -23 -4 -23
-60 l0 -60 -30 0 c-30 0 -30 0 -30 59 0 42 -4 60 -15 64 -11 5 -15 -7 -17 -61
-3 -64 -4 -67 -28 -67 -25 0 -25 1 -25 85 l0 85 30 1 c52 2 55 4 55 23 0 23
47 63 69 59 9 -2 17 -15 19 -31z m-123 -7 c0 -30 -33 -40 -51 -15 -19 25 -6
47 25 43 20 -2 26 -8 26 -28z m-565 -4 c38 -42 2 -79 -40 -41 -19 17 -50 10
-50 -10 0 -14 22 -25 51 -25 28 0 69 -44 69 -75 0 -40 -41 -75 -88 -75 -68 0
-131 72 -76 86 18 5 29 0 42 -16 14 -17 24 -21 41 -15 32 10 21 28 -30 45 -51
18 -75 53 -65 93 13 55 105 76 146 33z m-1085 -26 c0 -23 -4 -25 -47 -28 -39
-3 -48 -7 -48 -22 0 -15 9 -19 43 -22 37 -3 42 -6 42 -28 0 -22 -5 -25 -42
-28 -42 -3 -42 -3 -45 -45 -3 -37 -6 -42 -28 -42 l-25 0 -3 117 c-3 133 -8
127 93 125 57 -2 60 -3 60 -27z m1555 11 c0 -10 7 -21 15 -25 8 -3 15 -17 15
-31 0 -16 -6 -25 -15 -25 -10 0 -15 -10 -15 -30 0 -18 6 -33 15 -36 8 -4 15
-17 15 -30 0 -19 -5 -24 -25 -24 -38 0 -65 33 -65 80 0 50 -16 53 -17 4 -2
-52 -35 -84 -89 -84 -34 0 -47 5 -67 29 l-24 30 -12 -25 c-12 -28 -54 -47 -82
-39 -16 5 -19 1 -19 -24 0 -30 -27 -50 -50 -36 -6 4 -10 54 -10 120 l0 113 64
1 c60 0 67 -2 90 -29 23 -28 25 -29 31 -10 7 22 53 50 83 50 11 0 31 -9 46
-21 21 -17 26 -18 26 -5 0 9 5 16 10 16 6 0 15 11 20 25 12 31 60 36 60 6z
m-708 -64 c4 -7 8 -42 8 -79 0 -65 -1 -68 -24 -68 -28 0 -36 16 -36 77 0 37
-3 44 -17 41 -14 -2 -19 -15 -21 -61 -3 -57 -4 -58 -30 -55 -27 3 -27 4 -27
83 l0 80 45 5 c48 6 90 -4 102 -23z m-594 -12 l24 -22 28 29 c31 30 55 35 93
17 38 -17 66 -99 35 -99 -10 0 -10 -2 0 -8 23 -15 -24 -62 -63 -62 -47 0 -64
8 -81 41 -8 16 -20 29 -27 29 -8 0 -8 -3 2 -9 20 -13 -2 -47 -39 -59 -58 -21
-120 25 -120 88 0 15 -5 20 -17 18 -14 -2 -19 -15 -21 -56 -3 -50 -4 -52 -33
-52 l-30 0 3 83 3 82 53 2 c37 1 52 -2 52 -12 0 -10 9 -8 37 6 42 21 67 18
101 -16z m407 10 c28 -27 34 -88 12 -116 -21 -27 -57 -41 -92 -35 -40 8 -64
34 -71 78 -14 81 93 132 151 73z m1346 -71 c9 -11 10 -20 2 -32 -15 -24 -44
-27 -59 -7 -28 38 27 75 57 39z m1096 -391 c-1 -54 -3 -10 -3 97 0 107 2 151
3 98 2 -54 2 -142 0 -195z m13 -119 c0 -8 -4 -12 -10 -9 -5 3 -10 10 -10 16 0
5 5 9 10 9 6 0 10 -7 10 -16z"/>
<path d="M3576 5792 c-2 -4 7 -12 20 -19 21 -10 24 -9 24 8 0 19 -33 28 -44
11z"/>
<path d="M3645 5781 c-6 -21 3 -51 16 -51 5 0 9 16 9 35 0 37 -15 47 -25 16z"/>
<path d="M4265 4980 c-67 -7 -108 -25 -102 -43 4 -13 24 -13 133 -2 79 9 186
-6 249 -34 43 -19 65 -18 65 5 0 47 -202 91 -345 74z"/>
<path d="M4225 4863 c-29 -7 -47 -25 -37 -35 6 -6 35 -5 73 2 75 14 152 6 227
-22 58 -22 93 -18 72 7 -24 29 -136 55 -229 54 -47 -1 -95 -4 -106 -6z"/>
<path d="M4270 4763 c-52 -8 -70 -14 -70 -22 0 -5 46 -7 103 -4 87 5 110 2
156 -16 57 -21 75 -20 50 3 -33 33 -154 53 -239 39z"/>
<path d="M5140 4860 c-25 -25 -25 -51 -2 -80 15 -18 25 -22 46 -16 62 15 49
116 -15 116 -5 0 -18 -9 -29 -20z"/>
<path d="M5391 4866 c-18 -21 -10 -76 14 -92 43 -28 95 29 71 77 -14 29 -66
38 -85 15z"/>
<path d="M5197 2394 c-13 -13 -7 -52 9 -58 22 -9 46 13 42 38 -3 21 -37 34
-51 20z"/>
<path d="M6225 2420 c3 -5 11 -10 16 -10 6 0 7 5 4 10 -3 6 -11 10 -16 10 -6
0 -7 -4 -4 -10z"/>
<path d="M6215 2350 c4 -6 11 -8 16 -5 14 9 11 15 -7 15 -8 0 -12 -5 -9 -10z"/>
<path d="M5540 2410 c0 -5 7 -10 16 -10 8 0 12 5 9 10 -3 6 -10 10 -16 10 -5
0 -9 -4 -9 -10z"/>
<path d="M5684 2396 c-11 -29 0 -51 26 -51 21 0 25 5 25 30 0 24 -5 31 -23 33
-13 2 -24 -3 -28 -12z"/>
<path d="M5535 2340 c3 -5 10 -10 16 -10 5 0 9 5 9 10 0 6 -7 10 -16 10 -8 0
-12 -4 -9 -10z"/>
<path d="M6044 2406 c-9 -24 4 -48 23 -44 12 2 18 12 18 28 0 29 -32 41 -41
16z"/>
<path d="M6037 2298 c2 -5 15 -8 29 -8 13 0 24 3 24 8 0 4 -13 7 -29 7 -16 0
-27 -3 -24 -7z"/>
<path d="M4647 2389 c-21 -12 -23 -57 -2 -65 8 -4 22 -1 30 6 32 26 7 78 -28
59z"/>
<path d="M4985 2400 c-3 -5 1 -10 10 -10 9 0 13 5 10 10 -3 6 -8 10 -10 10 -2
0 -7 -4 -10 -10z"/>
<path d="M4975 2330 c3 -5 10 -10 16 -10 5 0 9 5 9 10 0 6 -7 10 -16 10 -8 0
-12 -4 -9 -10z"/>
<path d="M5447 1993 c-4 -3 -7 -19 -7 -35 0 -23 4 -28 24 -28 16 0 27 7 31 20
10 32 -27 65 -48 43z"/>
<path d="M5615 1980 c-7 -23 10 -50 31 -50 18 0 35 34 28 54 -9 24 -51 20 -59
-4z"/>
<path d="M4435 1980 c-3 -5 3 -10 15 -10 12 0 18 5 15 10 -3 6 -10 10 -15 10
-5 0 -12 -4 -15 -10z"/>
<path d="M4595 1980 c-4 -6 5 -10 20 -10 15 0 24 4 20 10 -3 6 -12 10 -20 10
-8 0 -17 -4 -20 -10z"/>
<path d="M4430 1920 c0 -5 9 -10 19 -10 11 0 23 5 26 10 4 6 -5 10 -19 10 -14
0 -26 -4 -26 -10z"/>
<path d="M4595 1920 c3 -5 15 -10 25 -10 10 0 22 5 25 10 4 6 -7 10 -25 10
-18 0 -29 -4 -25 -10z"/>
<path d="M4831 1976 c-20 -24 -9 -51 22 -54 27 -3 28 -1 25 30 -3 36 -27 48
-47 24z"/>
</g>
</svg>
