<?xml version="1.0" standalone="no"?>
<!DOCTYPE svg PUBLIC "-//W3C//DTD SVG 20010904//EN"
 "http://www.w3.org/TR/2001/REC-SVG-20010904/DTD/svg10.dtd">
<svg version="1.0" xmlns="http://www.w3.org/2000/svg"
 width="1280.000000pt" height="1048.000000pt" viewBox="0 0 1280.000000 1048.000000"
 preserveAspectRatio="xMidYMid meet">

<g transform="translate(0.000000,1048.000000) scale(0.100000,-0.100000)"
fill="#000000" stroke="none">
<path d="M0 10190 l0 -290 33 0 c19 0 54 -6 78 -13 24 -8 49 -12 56 -10 6 2
18 -5 26 -17 9 -13 20 -18 31 -14 9 3 16 1 16 -6 0 -39 111 -74 239 -75 65 -1
96 -5 99 -14 6 -18 -18 -71 -33 -71 -6 0 -33 -29 -60 -65 -26 -36 -54 -65 -61
-65 -8 0 -14 -3 -14 -8 0 -13 -86 -53 -125 -58 -21 -3 -44 -9 -49 -13 -6 -5
-40 -11 -76 -14 -36 -3 -77 -8 -92 -10 -16 -2 -37 -4 -48 -5 -19 -2 -20 -9
-20 -263 l0 -262 53 7 c28 4 69 9 90 11 26 4 51 -2 80 -16 71 -36 72 -59 2
-59 -24 0 -47 -4 -50 -10 -9 -15 236 -250 260 -250 13 0 31 18 52 49 30 46 30
48 12 62 -11 8 -17 20 -14 30 4 12 -1 20 -15 24 -17 5 -19 10 -9 21 6 8 7 14
2 14 -5 0 -16 20 -25 45 l-17 45 29 30 c17 17 30 28 30 24 0 -3 16 14 36 38
20 23 45 46 55 50 23 9 149 -2 149 -13 0 -4 8 -10 18 -13 25 -9 92 -70 92 -84
0 -7 4 -12 9 -12 8 0 24 -40 26 -65 0 -6 8 -21 18 -35 9 -13 17 -34 17 -46 0
-15 10 -27 30 -36 17 -7 30 -16 30 -20 0 -11 68 -10 75 1 3 5 1 12 -4 16 -11
6 -9 70 2 82 4 4 15 8 25 9 41 5 140 27 177 38 22 8 74 17 115 20 105 10 205
39 315 91 121 56 151 64 257 64 102 -1 123 8 131 55 6 37 34 76 54 76 7 0 13
6 13 14 0 8 8 21 19 28 33 24 51 73 53 153 2 59 -1 79 -12 88 -23 18 -58 98
-96 217 -18 59 -28 116 -32 185 -3 70 -9 102 -18 108 -9 5 -14 27 -14 62 0 30
-5 57 -10 60 -6 4 -3 16 10 32 11 14 20 31 20 38 0 6 11 22 25 35 14 13 25 29
25 36 0 22 150 154 176 154 40 0 104 -24 104 -39 0 -11 3 -11 17 0 11 10 14
10 9 2 -5 -9 -1 -13 11 -14 10 0 13 -3 5 -6 -22 -9 -13 -28 18 -40 17 -6 30
-18 30 -26 0 -8 6 -17 14 -20 8 -3 17 -37 25 -94 6 -48 20 -114 31 -146 23
-68 46 -258 35 -284 -5 -10 -9 -20 -10 -23 -1 -3 -4 -12 -7 -20 -3 -8 -13 -47
-22 -86 l-17 -71 25 -54 c13 -30 36 -64 50 -76 17 -15 26 -33 26 -52 0 -17 5
-33 11 -37 6 -3 8 -16 5 -29 -10 -38 47 -136 73 -127 9 3 12 0 9 -9 -10 -27
11 -58 52 -77 40 -18 90 -19 90 -1 0 10 101 -1 117 -13 6 -5 40 -11 75 -14 35
-3 81 -7 104 -10 29 -4 44 -2 53 10 8 9 19 16 26 16 13 0 25 31 31 79 1 13 10
31 18 40 9 10 13 20 10 24 -4 3 2 14 12 24 17 17 17 18 0 21 -10 2 -15 10 -12
18 3 8 -1 14 -9 14 -8 0 -19 9 -25 19 -5 11 -18 22 -27 25 -21 7 -59 63 -69
100 -6 25 21 126 37 136 5 3 10 23 13 44 3 20 10 44 17 52 18 21 89 57 89 44
0 -5 20 -10 44 -10 127 0 206 -104 209 -276 1 -77 3 -83 30 -105 16 -13 39
-33 51 -45 25 -25 69 -35 105 -24 24 8 218 23 268 21 12 0 25 4 28 9 4 7 13 7
25 0 12 -6 28 -6 48 1 16 5 33 9 38 8 10 -2 40 7 67 22 10 6 28 7 39 3 15 -4
18 -3 13 6 -6 9 0 10 23 5 18 -3 33 -2 37 4 3 6 14 11 24 11 9 0 22 5 29 12
12 12 79 38 100 38 8 0 28 6 45 14 63 27 102 41 111 38 5 -2 31 5 58 15 44 15
47 19 32 30 -16 11 -12 13 27 13 32 0 40 3 29 10 -8 5 -13 10 -10 11 66 12 94
20 100 28 14 20 70 50 83 45 17 -6 62 19 90 51 11 11 28 19 41 17 13 -2 29 4
36 12 7 9 20 16 30 16 10 0 23 7 30 15 7 8 23 15 36 15 13 0 24 4 24 9 0 5 18
7 40 4 32 -5 40 -3 38 8 -2 10 7 14 29 14 18 1 38 6 45 13 9 9 9 12 0 12 -7 0
-12 4 -12 9 0 7 18 16 50 25 15 4 50 48 45 56 -4 6 1 10 9 10 8 0 20 9 26 21
19 34 51 61 66 55 8 -3 13 -2 9 3 -3 5 9 23 26 40 28 29 42 36 62 32 5 -1 6 3
2 9 -5 8 44 37 78 46 4 1 9 3 12 4 3 1 8 3 13 4 4 1 13 5 20 9 6 5 16 5 22 2
5 -3 10 -2 10 4 0 13 163 11 172 -2 4 -7 11 -7 20 1 10 8 18 8 25 1 6 -6 13
-7 17 -1 3 5 25 6 51 2 25 -4 45 -3 45 2 0 5 8 7 18 4 12 -4 26 2 37 14 16 18
17 23 5 30 -8 6 -20 10 -27 10 -7 0 -17 8 -22 19 -6 10 -26 26 -46 35 -20 10
-39 24 -42 32 -3 8 -9 14 -15 14 -5 0 -34 16 -64 35 -30 19 -58 35 -63 35 -8
0 -30 17 -105 83 -24 20 -48 37 -55 37 -6 0 -11 6 -11 13 0 8 -8 21 -18 30
-17 16 -113 17 -1183 17 l-1164 0 -18 -36 c-9 -19 -17 -41 -17 -49 0 -8 -4
-15 -9 -15 -5 0 -17 -18 -27 -40 -10 -21 -21 -37 -26 -34 -5 3 -15 1 -23 -6
-10 -9 -15 -7 -20 9 -3 10 -12 22 -20 25 -8 3 -15 10 -15 16 0 6 5 8 10 5 14
-9 12 8 -3 29 -14 19 -11 76 4 76 5 0 9 5 9 10 0 7 -550 10 -1630 10 l-1630 0
0 -290z m3196 78 c15 -44 4 -67 -20 -43 -9 9 -16 23 -16 31 0 8 -4 12 -10 9
-14 -9 -12 19 2 33 18 18 30 10 44 -30z m149 -28 c17 -7 24 -7 20 0 -3 6 -1
10 4 10 17 0 50 -37 57 -65 3 -14 10 -25 14 -25 10 0 24 -76 21 -112 -2 -18 4
-30 18 -38 29 -15 26 -48 -8 -93 -34 -44 -64 -69 -108 -86 -29 -12 -35 -11
-65 10 -45 32 -88 80 -88 101 0 9 -6 18 -12 21 -10 3 -9 12 3 38 17 35 39 118
39 145 0 9 9 27 20 41 11 14 20 22 20 18 0 -5 9 0 20 10 11 10 17 22 14 26 -7
11 -1 11 31 -1z m-142 -72 c-3 -16 -9 -28 -14 -28 -5 0 -6 7 -4 15 3 8 7 22
10 31 8 26 14 12 8 -18z m-1383 -258 c0 -5 -5 -10 -11 -10 -5 0 -7 5 -4 10 3
6 8 10 11 10 2 0 4 -4 4 -10z m-240 -90 c0 -6 -8 -14 -17 -17 -17 -7 -28 -14
-56 -39 -18 -16 -41 -6 -26 12 6 8 16 14 21 14 5 0 21 9 35 20 28 22 43 25 43
10z m-94 -110 c29 0 31 -11 4 -35 -12 -11 -18 -26 -15 -36 4 -13 0 -17 -22
-17 -15 1 -43 -3 -60 -7 l-33 -7 0 55 c0 46 3 55 15 51 10 -4 15 0 15 16 0 11
4 18 10 15 5 -3 20 1 32 10 22 15 23 15 26 -15 3 -24 8 -30 28 -30z"/>
<path d="M8865 10463 c4 -10 10 -26 12 -35 3 -10 11 -18 19 -18 8 0 11 -6 8
-14 -3 -9 8 -29 26 -48 26 -27 39 -33 61 -30 16 2 30 9 31 16 0 6 2 16 2 21 3
23 71 106 90 110 12 2 30 6 41 8 11 3 -51 5 -139 6 -147 1 -158 0 -151 -16z"/>
<path d="M9305 10464 c22 -8 45 -12 52 -10 7 3 13 -1 13 -9 0 -8 12 -21 28
-29 15 -8 24 -15 20 -16 -5 0 1 -9 12 -20 11 -11 22 -32 25 -47 4 -16 10 -36
15 -45 6 -10 7 -24 4 -33 -6 -16 23 -87 39 -93 4 -2 7 -16 7 -31 0 -15 3 -31
8 -35 4 -4 7 -13 7 -19 0 -7 11 -14 24 -15 13 -2 26 -12 29 -24 3 -14 7 -16
13 -7 6 10 11 10 23 0 9 -7 26 -11 38 -8 11 3 30 1 41 -4 10 -6 40 -11 66 -11
25 -1 49 -6 54 -12 5 -8 10 -6 17 4 8 13 11 13 19 1 6 -9 33 -15 78 -17 38 -1
102 -10 142 -19 74 -17 114 -24 163 -28 15 -1 33 -8 40 -14 6 -7 18 -13 25
-13 7 0 13 -4 13 -9 0 -5 9 -7 19 -4 10 3 31 -3 47 -13 20 -14 29 -15 32 -6 5
17 19 15 42 -8 11 -11 30 -20 43 -20 16 0 18 -3 8 -9 -8 -5 -9 -11 -3 -15 6
-3 14 -2 17 4 5 8 11 7 21 -1 11 -9 14 -9 14 1 0 9 5 8 18 -3 10 -10 31 -17
45 -17 32 0 63 43 73 100 4 19 12 49 20 65 62 140 118 329 138 463 l6 42 -797
-1 c-710 0 -794 -2 -758 -15z"/>
<path d="M6235 10080 c-3 -6 1 -7 9 -4 18 7 21 14 7 14 -6 0 -13 -4 -16 -10z"/>
<path d="M552 9720 c0 -14 2 -19 5 -12 2 6 2 18 0 25 -3 6 -5 1 -5 -13z"/>
<path d="M6195 9270 c-12 -4 -43 -45 -70 -91 -27 -46 -75 -128 -107 -182 -38
-64 -53 -99 -45 -102 7 -3 127 -41 267 -84 140 -43 471 -147 735 -229 264 -83
903 -282 1420 -442 1932 -601 3094 -965 3101 -973 3 -2 -93 -202 -213 -443
-327 -657 -446 -900 -435 -889 21 22 883 1757 879 1768 -3 7 -301 101 -663
210 -363 108 -1028 308 -1479 443 -937 281 -1830 547 -1925 574 -36 10 -105
30 -155 43 -92 26 -1051 315 -1207 363 -48 15 -85 31 -82 36 6 9 5 9 -21 -2z
m117 -157 c26 -23 22 -50 -11 -84 -32 -31 -86 -40 -109 -17 -22 22 -14 65 19
92 35 30 74 33 101 9z m148 -43 c26 -26 25 -51 -4 -83 -30 -32 -70 -43 -102
-28 -21 9 -25 17 -22 48 2 30 10 42 37 60 42 28 65 29 91 3z m152 -47 c25 -23
23 -48 -9 -83 -47 -52 -123 -40 -123 19 0 31 7 42 40 64 31 22 68 22 92 0z
m162 -66 c19 -53 -53 -112 -111 -91 -40 14 -44 64 -9 99 21 21 34 26 68 23 36
-3 44 -7 52 -31z m4035 -1146 c44 -23 70 -59 78 -106 4 -26 1 -35 -15 -44 -23
-12 -31 -5 -52 48 -26 65 -122 86 -202 45 -41 -21 -60 -18 -56 9 8 58 167 88
247 48z m-51 -81 c36 -22 58 -60 49 -84 -10 -26 -42 -18 -66 15 -23 31 -25 32
-87 26 -59 -6 -64 -5 -64 14 0 44 111 64 168 29z m486 -82 c78 -23 147 -46
154 -51 7 -6 12 -22 10 -36 -1 -14 1 -31 4 -36 8 -13 -43 -111 -57 -108 -6 1
-19 -6 -30 -16 -36 -32 -42 -32 -187 10 -145 42 -188 60 -188 81 0 18 70 150
93 176 11 12 29 22 40 22 11 0 84 -19 161 -42z m-543 12 c27 -15 24 -55 -7
-79 -33 -26 -39 -26 -64 -1 -16 16 -18 24 -9 44 6 13 21 29 33 34 27 14 24 14
47 2z"/>
<path d="M11301 7499 c-47 -80 -49 -89 -22 -89 14 0 30 20 55 67 39 73 44 93
22 93 -8 0 -33 -32 -55 -71z"/>
<path d="M0 8535 c0 -99 1 -104 22 -111 13 -3 39 -21 58 -40 76 -72 116 -104
132 -104 9 0 20 -5 24 -11 4 -7 29 -10 65 -7 72 5 101 27 95 72 -9 68 -20 102
-37 119 -11 10 -19 22 -19 27 0 6 -7 10 -15 10 -9 0 -21 11 -27 25 -10 23 -17
25 -70 25 -50 0 -65 4 -96 29 -20 17 -58 39 -84 50 l-48 20 0 -104z"/>
<path d="M12430 8177 c17 -37 31 -85 32 -107 1 -25 4 -36 9 -28 8 12 4 62 -8
102 -4 16 -45 81 -59 95 -2 3 9 -25 26 -62z"/>
<path d="M7081 8179 c-112 -56 -167 -113 -223 -229 -66 -139 -71 -160 -64
-254 8 -101 30 -175 62 -210 77 -82 249 -113 357 -63 86 40 137 94 185 193 48
103 92 242 92 294 0 111 -74 218 -179 255 -29 11 -57 28 -62 37 -17 31 -78 23
-168 -23z m112 -49 c4 -16 13 -20 39 -19 42 2 86 -15 121 -49 86 -81 83 -198
-9 -401 -80 -174 -214 -239 -363 -174 -78 34 -98 67 -113 180 -13 103 -8 125
50 246 54 113 103 167 196 211 63 31 72 32 79 6z"/>
<path d="M12361 8180 c14 -31 19 -36 19 -24 0 6 -7 19 -16 30 -14 18 -14 18
-3 -6z"/>
<path d="M12560 8130 c0 -5 5 -10 10 -10 6 0 10 -7 10 -15 0 -9 7 -18 15 -21
8 -4 15 -17 15 -30 0 -15 6 -24 15 -24 8 0 15 -7 15 -15 0 -8 4 -15 10 -15 5
0 12 -11 16 -25 3 -14 12 -25 20 -25 8 0 14 -6 14 -13 0 -8 14 -34 31 -60 27
-41 30 -51 23 -94 -8 -56 -40 -133 -55 -133 -6 0 -8 -7 -5 -16 4 -11 -1 -18
-14 -21 -11 -3 -18 -9 -15 -13 3 -4 -7 -16 -22 -26 -14 -11 -34 -27 -45 -36
-10 -10 -22 -18 -26 -18 -14 0 -69 -64 -77 -88 -3 -12 -11 -20 -16 -17 -9 6
-10 2 -12 -95 -1 -30 -6 -61 -10 -68 -5 -8 -2 -15 9 -19 16 -6 15 -7 -2 -20
-17 -12 -17 -13 2 -14 11 0 14 -3 6 -6 -10 -4 -10 -8 -1 -20 10 -12 10 -16 -2
-24 -9 -6 -11 -11 -3 -16 6 -5 10 -30 9 -58 -2 -36 2 -53 14 -62 15 -11 14
-12 -1 -13 -10 0 -18 -4 -18 -10 0 -5 8 -10 18 -11 11 0 12 -2 4 -6 -10 -4 -9
-8 3 -17 9 -6 18 -27 20 -46 1 -19 5 -43 9 -52 3 -10 9 -26 12 -35 4 -10 8
-35 10 -56 2 -21 13 -64 24 -97 11 -33 20 -68 20 -78 0 -10 3 -22 7 -25 3 -4
7 -30 8 -59 2 -29 6 -86 10 -125 5 -54 4 -73 -5 -73 -7 0 -10 -7 -6 -16 4 -9
2 -22 -4 -29 -7 -9 -7 -15 -1 -19 11 -7 2 -78 -11 -87 -12 -8 -16 -77 -7 -112
6 -21 4 -30 -7 -34 -16 -6 -19 -43 -3 -43 11 0 8 -42 -6 -74 -5 -11 -3 -26 4
-37 8 -14 8 -19 0 -19 -8 0 -7 -5 2 -16 10 -13 10 -17 -2 -25 -12 -8 -12 -11
1 -22 10 -8 16 -32 17 -67 3 -109 10 -148 34 -193 7 -13 6 -23 -3 -34 -10 -13
-9 -18 7 -29 10 -8 13 -14 7 -14 -17 0 -15 -26 4 -55 12 -18 13 -25 4 -25 -7
0 -18 -8 -25 -17 -10 -13 -10 -19 1 -30 7 -7 17 -13 22 -13 5 0 7 -22 4 -50
-4 -44 -2 -50 14 -50 18 -1 18 -1 1 -11 -18 -10 -18 -11 0 -25 14 -11 15 -13
3 -14 -12 0 -10 -4 4 -15 19 -14 19 -15 1 -15 -17 0 -17 -1 -2 -18 19 -20 22
-42 8 -42 -6 0 -13 -21 -16 -47 -4 -27 -9 -55 -11 -63 -2 -9 8 -23 24 -33 27
-18 26 -18 -60 -13 -53 3 -88 1 -88 -4 0 -6 -12 -10 -27 -10 -65 -1 43 -29
207 -55 19 -3 50 -8 68 -11 l32 -6 0 1640 c0 1596 -1 1641 -19 1647 -20 6
-189 35 -208 35 -7 0 -13 -4 -13 -10z m185 -3270 c3 -5 -1 -10 -9 -10 -9 0
-16 5 -16 10 0 6 4 10 9 10 6 0 13 -4 16 -10z"/>
<path d="M12393 8055 c0 -33 2 -45 4 -27 2 18 2 45 0 60 -2 15 -4 0 -4 -33z"/>
<path d="M7723 8013 c-10 -4 -157 -292 -256 -503 -14 -30 -47 -88 -73 -129
-37 -57 -45 -77 -37 -90 15 -24 39 -25 60 -2 33 36 109 173 174 314 35 75 67
137 71 137 4 0 8 -105 8 -232 0 -286 12 -341 72 -324 51 14 168 190 262 393
40 87 85 182 100 212 31 65 32 77 7 91 -31 16 -54 -14 -121 -160 -110 -240
-138 -294 -188 -363 l-49 -68 -7 47 c-12 89 -6 446 9 529 8 44 15 92 15 107 0
28 -24 49 -47 41z"/>
<path d="M12375 7961 c-4 -19 -37 -97 -72 -174 -36 -78 -66 -146 -67 -153 -1
-6 -7 -19 -14 -27 -7 -8 -15 -24 -17 -36 -2 -12 -11 -28 -19 -37 -19 -19 -21
-28 -3 -19 6 4 5 1 -4 -7 -9 -7 -14 -19 -11 -27 3 -8 0 -11 -7 -7 -6 4 -11 2
-11 -4 0 -7 -11 -34 -25 -62 -13 -27 -21 -46 -16 -43 5 3 4 -6 -2 -19 -7 -13
-16 -22 -21 -19 -5 4 -6 1 -3 -5 10 -15 -3 -43 -16 -35 -5 3 -7 1 -4 -4 4 -6
-54 -136 -128 -288 -74 -152 -135 -279 -135 -282 0 -11 58 54 78 87 11 19 70
132 130 250 60 118 125 247 145 285 100 194 245 508 240 521 -3 8 -11 14 -19
14 -17 0 -17 -3 2 53 9 26 14 52 11 59 -2 7 -7 -2 -12 -21z"/>
<path d="M8373 7772 c-10 -7 -87 -171 -203 -432 -40 -91 -90 -255 -90 -295 0
-30 28 -45 122 -69 38 -9 93 -27 124 -41 68 -30 80 -31 94 -5 8 15 6 24 -8 38
-19 19 -128 62 -209 82 -25 6 -43 17 -43 25 0 33 73 231 132 360 89 193 138
301 138 308 0 8 -30 37 -38 37 -4 0 -12 -4 -19 -8z"/>
<path d="M1615 7736 c-16 -6 -41 -19 -55 -27 -14 -9 -56 -35 -95 -58 -87 -51
-100 -60 -136 -91 -29 -25 -38 -63 -18 -76 7 -4 8 -20 4 -43 -4 -20 -8 -42 -9
-49 -1 -8 -8 -17 -15 -22 -11 -6 -11 -9 0 -13 11 -4 12 -7 2 -18 -22 -23 -14
-47 25 -76 20 -15 39 -31 40 -35 2 -5 10 -8 18 -8 9 0 13 -4 9 -9 -3 -6 7 -6
27 -1 32 9 49 25 115 106 30 35 123 213 123 233 0 5 6 14 13 20 13 10 16 30
20 120 3 44 -25 63 -68 47z"/>
<path d="M8829 7558 c-10 -18 -8 -24 11 -40 12 -10 31 -18 41 -18 10 0 19 -4
19 -9 0 -5 -43 -101 -95 -213 -53 -111 -110 -234 -128 -271 -30 -64 -33 -68
-59 -63 -20 4 -31 0 -42 -15 -8 -12 -12 -27 -9 -35 6 -17 159 -76 187 -72 35
5 28 49 -11 68 l-31 15 23 50 c13 28 46 100 73 160 27 61 75 163 107 227 53
109 59 117 89 120 23 2 32 9 34 24 4 28 -12 39 -94 69 -84 31 -100 31 -115 3z"/>
<path d="M6178 7478 c-9 -7 -33 -44 -54 -83 -36 -66 -113 -190 -210 -335 -49
-73 -124 -230 -124 -260 0 -25 38 -37 57 -17 9 8 33 54 54 101 21 47 58 114
82 148 24 35 55 83 69 108 68 119 70 106 12 -119 -58 -232 -61 -252 -40 -271
23 -18 46 1 96 79 101 158 279 406 286 398 3 -3 -4 -40 -15 -83 -10 -44 -25
-113 -31 -154 -7 -41 -32 -137 -57 -213 -37 -114 -43 -140 -32 -153 7 -8 22
-14 33 -12 17 2 29 26 64 128 24 69 52 170 62 226 10 55 32 160 49 233 36 155
37 167 12 180 -14 8 -25 5 -48 -12 -52 -39 -146 -150 -223 -265 -41 -61 -78
-111 -81 -112 -4 0 11 66 31 148 21 81 43 177 49 212 6 36 14 75 16 87 3 12
-2 28 -11 37 -19 19 -25 20 -46 4z"/>
<path d="M9322 7378 c-7 -7 -12 -16 -12 -20 0 -4 -15 -31 -34 -60 -42 -67
-254 -490 -290 -580 -29 -75 -26 -98 13 -98 24 0 31 7 53 63 42 102 242 506
252 506 4 1 6 -9 3 -22 -4 -12 -9 -160 -13 -327 -8 -335 -5 -354 44 -348 24 3
33 19 100 178 40 96 109 258 152 360 59 139 76 189 69 202 -13 25 -46 22 -63
-4 -8 -13 -63 -140 -123 -282 -59 -143 -109 -252 -111 -243 -2 10 4 162 12
338 17 334 16 349 -23 349 -9 0 -22 -5 -29 -12z"/>
<path d="M786 7298 c-15 -21 -16 -21 -16 -3 -1 20 -1 20 -16 0 -13 -17 -16
-18 -24 -5 -8 13 -10 12 -10 -2 0 -18 -65 -52 -80 -43 -4 3 -18 -3 -31 -13
-35 -25 -61 -41 -85 -51 -11 -5 -27 -15 -35 -23 -8 -8 -36 -22 -63 -32 -28
-11 -64 -33 -82 -51 -26 -26 -42 -33 -92 -38 -45 -5 -61 -3 -65 7 -3 7 -22 13
-42 14 -46 2 -64 16 -58 45 4 18 3 19 -6 7 -10 -13 -13 -13 -25 3 -25 32 -32
17 -33 -60 -2 -160 -10 -344 -17 -350 -10 -10 -7 -2013 3 -2013 15 0 24 20 28
59 4 56 6 61 15 61 5 0 6 9 3 20 -5 14 -2 20 9 20 19 0 21 16 4 23 -8 3 -6 6
5 6 15 1 16 5 7 21 -8 14 -8 26 0 41 7 12 9 37 5 60 -6 32 -4 39 10 39 14 0
16 11 14 85 -2 64 -6 84 -16 81 -15 -6 -33 52 -33 105 0 19 -6 43 -13 52 -8
12 -12 53 -11 129 1 61 -1 106 -5 99 -4 -6 -7 17 -7 51 1 35 5 69 10 77 6 10
3 18 -9 28 -11 7 -14 13 -8 13 5 0 13 27 16 60 9 86 17 110 35 110 11 0 9 5
-8 20 -23 20 -23 20 -2 20 24 0 30 17 8 22 -11 2 -10 9 4 35 l17 32 22 -20 22
-21 6 21 c6 24 18 27 27 9 3 -7 4 -1 1 15 -3 15 -1 27 5 27 5 0 10 9 10 19 0
14 5 18 20 14 11 -3 20 -9 20 -14 0 -20 31 -7 40 16 5 14 17 28 27 32 9 4 24
13 32 20 9 7 33 27 53 44 21 17 36 34 34 38 -6 10 62 46 71 38 3 -4 14 -1 22
7 9 8 27 16 41 18 14 2 35 10 48 17 13 7 30 10 38 7 8 -3 14 -2 14 3 0 10 46
31 69 31 10 0 31 7 47 15 16 8 39 12 51 9 14 -4 23 -2 23 6 0 7 8 9 20 5 13
-4 20 -2 20 7 0 10 14 13 48 13 26 -1 53 3 59 8 7 5 19 7 28 4 8 -4 21 1 30 9
9 9 23 13 32 10 8 -4 22 -1 29 5 8 6 27 9 44 6 16 -4 32 -2 35 2 3 5 31 9 63
9 67 0 318 18 353 26 38 9 111 18 151 20 20 0 40 4 44 9 4 4 23 4 41 1 18 -3
39 -2 46 4 6 5 39 10 71 11 32 1 64 5 70 8 11 8 64 14 106 14 14 0 43 6 65 13
22 8 63 17 90 21 74 10 90 13 90 15 0 3 32 8 81 13 23 3 46 7 52 11 11 6 47
15 182 41 41 7 89 19 105 24 54 18 157 43 264 63 58 11 149 28 201 38 52 10
106 21 120 25 14 4 43 11 65 15 286 61 355 79 355 92 0 6 6 5 15 -2 11 -9 15
-9 15 -1 0 13 -3 14 -88 30 -194 36 -367 46 -792 45 -350 -1 -380 -3 -455 -23
-49 -13 -151 -27 -265 -36 -217 -18 -354 -38 -442 -65 -50 -15 -72 -18 -99
-10 -19 6 -74 10 -124 11 -72 0 -106 -5 -170 -26 -44 -14 -95 -28 -114 -31
-19 -2 -62 -11 -95 -20 -71 -19 -191 -13 -239 11 -17 8 -36 15 -44 15 -23 0
-14 38 17 73 23 27 30 44 30 76 0 22 -4 41 -8 41 -16 0 -34 68 -39 150 -4 72
-8 86 -26 100 -12 8 -26 14 -31 12 -4 -1 -14 2 -21 8 -10 8 -17 5 -29 -12z"/>
<path d="M6809 7158 c-23 -29 -58 -78 -78 -108 -20 -30 -63 -93 -97 -140 -70
-97 -184 -278 -210 -332 -21 -46 -13 -70 23 -66 20 2 33 14 53 53 14 28 43 76
64 108 41 64 39 64 129 23 26 -11 47 -26 47 -33 0 -27 -22 -121 -37 -155 -19
-45 -6 -68 38 -68 34 0 35 5 74 216 14 78 30 156 35 175 9 31 43 217 57 311 6
42 -8 68 -38 68 -10 0 -37 -23 -60 -52z m-4 -175 c-6 -45 -45 -225 -50 -230
-1 -2 -27 7 -59 20 l-57 23 50 65 c27 36 63 89 81 117 17 29 34 52 37 52 3 0
2 -21 -2 -47z"/>
<path d="M4158 7149 c-11 -6 -18 -22 -18 -42 0 -18 -4 -37 -9 -42 -6 -6 -4
-18 5 -30 21 -28 105 -28 134 0 20 20 20 20 0 53 -11 18 -34 41 -52 52 -38 23
-37 23 -60 9z"/>
<path d="M9923 7147 c-36 -11 -32 -3 -177 -353 -140 -340 -164 -418 -133 -441
18 -15 287 -113 308 -113 10 0 23 9 29 20 17 31 -12 50 -148 100 l-123 45 7
30 c8 38 94 254 103 260 4 2 58 -16 120 -41 113 -46 136 -48 148 -18 9 25 -23
47 -134 90 -54 21 -100 39 -102 41 -6 4 115 303 123 303 14 0 164 -70 219
-102 38 -22 77 -38 90 -36 28 4 34 39 10 60 -20 18 -144 83 -218 116 -27 12
-59 28 -70 35 -15 11 -28 12 -52 4z"/>
<path d="M7238 7021 c-13 -11 -30 -39 -37 -63 -10 -33 -149 -331 -263 -565
-20 -41 16 -79 49 -52 9 8 32 48 50 89 77 170 73 163 95 143 25 -22 85 -115
109 -168 10 -22 15 -51 12 -66 -7 -36 34 -67 66 -49 39 21 16 120 -53 230
l-35 55 62 16 c140 35 186 84 195 211 4 59 1 74 -23 124 -25 51 -33 59 -91 85
-75 34 -102 36 -136 10z m103 -75 c47 -20 73 -68 73 -132 -1 -69 -21 -105 -72
-130 -39 -20 -177 -43 -188 -31 -3 3 20 60 50 127 31 66 56 123 56 125 0 2 4
15 10 29 11 30 24 32 71 12z"/>
<path d="M7753 6898 c-12 -16 -80 -179 -168 -403 -36 -93 -80 -202 -96 -242
-16 -39 -29 -83 -29 -98 0 -29 24 -43 48 -28 16 10 111 234 112 262 0 27 17
-2 105 -176 86 -175 101 -193 133 -161 23 23 12 55 -73 222 -47 92 -85 169
-85 172 0 5 167 88 247 122 56 24 87 59 77 86 -8 20 -34 21 -71 1 -65 -34
-266 -125 -270 -122 -3 4 44 125 104 265 29 67 33 85 23 97 -15 18 -44 19 -57
3z"/>
<path d="M8236 6645 c-9 -9 -16 -24 -16 -34 0 -19 -47 -153 -130 -371 -109
-287 -117 -320 -81 -340 11 -5 34 -10 51 -10 17 0 64 -10 105 -22 72 -21 75
-21 95 -3 23 20 26 50 8 62 -13 8 -65 24 -150 46 l-47 12 55 138 c29 75 54
142 54 148 0 6 6 9 14 6 7 -3 46 -15 85 -27 56 -16 76 -19 86 -10 39 32 23 90
-24 90 -34 0 -121 29 -121 40 0 7 59 170 65 177 0 1 38 -9 84 -24 91 -29 114
-26 119 20 4 31 -6 37 -120 76 -46 15 -90 31 -99 35 -10 4 -23 1 -33 -9z"/>
<path d="M5884 6539 c-10 -17 1 -23 154 -88 78 -33 226 -102 330 -152 546
-265 606 -294 715 -335 50 -19 153 -64 227 -99 222 -104 735 -330 885 -388 77
-31 228 -84 335 -120 107 -36 278 -95 380 -132 102 -37 256 -91 342 -121 86
-29 205 -78 265 -107 152 -76 243 -111 255 -99 14 14 1 32 -22 32 -10 0 -22 5
-25 10 -3 6 -13 10 -22 10 -8 0 -77 30 -152 66 -75 36 -185 83 -246 104 -60
21 -222 79 -360 128 -137 50 -348 122 -468 162 -120 39 -278 96 -350 125 -141
56 -614 265 -837 370 -74 34 -157 71 -185 80 -75 27 -331 147 -780 365 -88 43
-205 97 -260 120 -55 23 -117 51 -137 61 -25 13 -39 15 -44 8z"/>
<path d="M8592 6484 c-54 -38 -16 -74 126 -119 48 -15 89 -29 91 -31 2 -2 -57
-128 -131 -281 -165 -340 -164 -338 -148 -358 30 -36 49 -18 102 98 29 61 97
203 153 314 l100 201 59 -24 c73 -29 81 -30 100 -2 13 18 13 26 3 41 -13 20
-107 60 -257 108 -52 17 -109 39 -126 50 -38 23 -43 23 -72 3z"/>
<path d="M5865 6460 c-3 -5 0 -12 7 -17 13 -8 167 -70 311 -124 43 -16 110
-48 150 -71 79 -46 280 -151 452 -236 123 -61 203 -96 350 -152 55 -20 141
-56 190 -77 50 -22 115 -48 145 -58 30 -10 134 -57 230 -105 96 -48 213 -104
260 -125 47 -20 142 -64 212 -96 70 -32 167 -70 215 -84 115 -33 361 -123 543
-198 80 -32 236 -96 347 -142 111 -46 237 -104 280 -131 109 -66 164 -94 174
-88 17 10 9 24 -18 35 -15 5 -53 27 -84 49 -78 53 -138 83 -329 161 -91 37
-237 97 -325 134 -210 87 -442 172 -533 196 -125 33 -458 177 -758 327 -87 43
-183 87 -213 97 -30 10 -100 38 -155 62 -56 25 -141 59 -191 78 -110 40 -236
94 -290 123 -22 12 -45 22 -50 22 -6 0 -51 24 -101 53 -49 29 -117 64 -151 79
-34 15 -103 52 -153 82 -50 30 -112 62 -138 72 -26 9 -85 33 -132 52 -158 64
-239 91 -245 82z"/>
<path d="M9160 6240 c-16 -31 3 -56 59 -77 l48 -18 -111 -263 -110 -263 -42 7
c-31 4 -45 2 -57 -11 -37 -37 -22 -53 92 -94 63 -24 87 -29 102 -21 25 14 24
55 -2 74 -21 14 -20 17 84 263 57 136 107 256 110 265 4 10 12 15 21 12 26
-10 57 15 54 43 -4 32 -14 37 -150 81 -82 27 -85 27 -98 2z"/>
<path d="M12581 6224 c0 -11 3 -14 6 -6 3 7 2 16 -1 19 -3 4 -6 -2 -5 -13z"/>
<path d="M9655 6096 c-18 -27 -155 -352 -155 -368 0 -11 -90 -227 -114 -272
-16 -32 -8 -62 21 -73 35 -13 53 24 216 444 l32 83 7 -48 c3 -26 7 -110 8
-187 0 -77 5 -201 10 -275 7 -120 11 -136 30 -152 17 -14 26 -15 41 -7 37 19
313 621 307 669 -2 20 -8 25 -33 25 -29 0 -32 -5 -92 -145 -35 -80 -87 -197
-116 -260 l-52 -115 -6 60 c-4 33 -8 125 -8 205 -3 223 -16 407 -31 425 -18
22 -47 18 -65 -9z"/>
<path d="M10201 5764 c-77 -80 -198 -283 -230 -390 -27 -87 -27 -180 -1 -242
24 -55 44 -70 104 -78 60 -9 110 2 143 30 15 13 37 25 48 27 31 6 59 74 63
156 4 70 3 74 -26 103 -33 33 -72 39 -92 15 -16 -19 -6 -45 20 -52 48 -13 30
-102 -34 -168 -38 -40 -47 -45 -87 -45 -24 0 -49 4 -54 8 -40 28 -46 145 -12
242 29 85 154 294 207 348 34 33 50 42 77 42 47 0 84 -24 111 -71 23 -40 48
-49 70 -27 18 18 15 34 -15 77 -44 61 -85 85 -160 89 l-65 4 -67 -68z"/>
<path d="M10817 5785 c-9 -19 -15 -35 -12 -35 7 0 37 61 33 66 -3 2 -12 -12
-21 -31z"/>
<path d="M4070 5720 c-6 -11 -8 -20 -6 -20 3 0 10 9 16 20 6 11 8 20 6 20 -3
0 -10 -9 -16 -20z"/>
<path d="M10766 5683 c-6 -14 -5 -15 5 -6 7 7 10 15 7 18 -3 3 -9 -2 -12 -12z"/>
<path d="M4040 5670 c-6 -11 -8 -20 -6 -20 3 0 10 9 16 20 6 11 8 20 6 20 -3
0 -10 -9 -16 -20z"/>
<path d="M2760 5657 c-33 -21 -34 -22 -12 -25 23 -3 62 22 62 40 0 13 -12 9
-50 -15z"/>
<path d="M3958 5535 c-34 -58 -117 -194 -184 -303 -66 -108 -289 -478 -494
-822 -205 -344 -479 -803 -610 -1020 -371 -615 -490 -820 -490 -838 0 -9 19
-28 43 -41 23 -13 121 -74 217 -134 96 -61 247 -154 335 -207 88 -54 318 -195
510 -315 193 -120 532 -330 755 -468 223 -137 563 -347 755 -467 193 -119 365
-225 383 -234 45 -23 61 -9 20 18 -61 42 -2203 1359 -2860 1760 -71 43 -128
81 -128 84 0 10 226 394 1197 2035 58 97 109 180 114 183 5 2 22 -2 39 -11 38
-19 80 -36 80 -31 0 2 -21 14 -46 26 -25 13 -48 29 -51 36 -3 8 7 35 23 61 15
27 124 212 242 413 251 427 224 380 219 380 -3 0 -34 -47 -69 -105z"/>
<path d="M2655 5600 c3 -5 11 -10 16 -10 6 0 7 5 4 10 -3 6 -11 10 -16 10 -6
0 -7 -4 -4 -10z"/>
<path d="M2898 5563 c-19 -5 -25 -23 -8 -23 6 0 10 -11 10 -24 0 -14 -4 -28
-10 -31 -5 -3 -10 -17 -10 -31 0 -14 4 -23 9 -20 16 10 -1 -45 -18 -57 -10 -7
-20 -20 -24 -29 -7 -19 -27 -25 -27 -7 0 5 -5 7 -10 4 -6 -3 -13 2 -16 12 -3
10 -12 32 -20 50 -8 17 -14 38 -14 47 0 19 -10 20 -34 3 -15 -11 -18 -30 -19
-120 -1 -59 1 -107 6 -107 12 0 8 -37 -6 -48 -13 -11 -50 8 -45 24 2 9 -8 58
-18 97 -3 9 -9 15 -14 12 -5 -3 -21 2 -35 11 -16 11 -25 12 -25 5 0 -7 -4 -9
-10 -6 -5 3 -11 -1 -11 -9 -1 -9 -2 -21 -3 -27 0 -6 -9 -16 -18 -23 -12 -9
-18 -33 -23 -91 -3 -45 -11 -82 -17 -86 -7 -5 -9 -11 -5 -15 3 -4 -3 -15 -15
-25 -15 -14 -21 -31 -22 -64 -1 -31 -5 -45 -15 -45 -8 0 -11 -7 -8 -20 3 -12
-2 -27 -11 -36 -14 -15 -14 -16 4 -12 10 2 18 10 16 16 -6 30 89 -14 112 -51
13 -20 -4 -54 -24 -49 -8 2 -11 -7 -8 -28 3 -21 1 -29 -7 -26 -19 7 -36 -9
-30 -27 4 -9 20 -19 36 -22 34 -8 41 -17 33 -40 -7 -17 -31 -14 -27 4 2 6 -2
11 -7 11 -18 0 -11 -22 15 -46 33 -31 33 -79 0 -124 -33 -44 -76 -79 -91 -73
-7 2 -15 0 -18 -5 -8 -13 37 -24 60 -15 15 6 16 1 11 -43 -4 -27 -10 -80 -13
-119 -4 -38 -13 -79 -20 -90 -7 -11 -12 -37 -12 -57 0 -64 -13 -140 -38 -221
-24 -78 -50 -184 -84 -347 -18 -85 -45 -179 -74 -255 -8 -22 -15 -50 -16 -62
0 -12 -4 -25 -10 -28 -5 -3 -10 -13 -10 -21 0 -23 17 -8 24 22 4 14 17 42 30
62 33 53 96 268 135 458 11 54 29 128 41 164 11 36 19 66 19 68 0 1 5 28 12
60 7 31 12 60 11 65 -3 11 12 8 31 -5 15 -12 37 -83 52 -171 3 -21 11 -37 17
-35 6 2 11 57 13 143 2 77 6 151 10 165 4 14 10 41 15 60 29 131 67 114 69
-31 1 -36 4 -69 8 -72 6 -7 32 36 170 283 42 74 95 164 118 200 24 36 50 82
58 103 9 20 82 137 164 259 81 123 154 234 161 248 7 14 29 38 48 54 39 32 84
97 84 121 0 9 -9 33 -19 54 -26 51 -62 64 -153 59 -62 -4 -78 -2 -103 16 -40
27 -55 42 -55 55 0 13 -23 15 -34 4 -11 -12 -126 -13 -126 -2 0 5 -4 9 -10 9
-5 0 -10 -7 -10 -15 0 -8 -8 -15 -19 -15 -10 0 -24 7 -31 15 -7 8 -15 14 -19
14 -3 -1 -14 -3 -23 -6z m336 -398 c-4 -8 -8 -15 -10 -15 -2 0 -4 7 -4 15 0 8
4 15 10 15 5 0 7 -7 4 -15z m-494 -26 c0 -14 -17 -10 -23 5 -4 10 -1 13 9 9 7
-3 14 -9 14 -14z m330 -296 c0 -13 -4 -23 -10 -23 -5 0 -7 -6 -4 -13 7 -20
-21 -51 -40 -44 -24 9 -20 44 11 87 29 39 43 37 43 -7z"/>
<path d="M2830 5530 c0 -5 5 -10 10 -10 6 0 10 5 10 10 0 6 -4 10 -10 10 -5 0
-10 -4 -10 -10z"/>
<path d="M4979 5211 c-72 -22 -98 -50 -99 -104 0 -50 22 -90 64 -116 39 -24
61 -73 46 -101 -5 -10 -24 -21 -41 -25 -26 -6 -36 -2 -64 25 -19 18 -35 42
-37 54 -4 26 -40 33 -57 12 -18 -21 -6 -49 43 -100 54 -55 90 -64 151 -37 34
15 49 29 61 56 14 33 13 41 -2 82 -12 31 -31 55 -55 72 -21 14 -43 39 -50 54
-10 25 -9 31 7 47 10 11 33 22 50 26 28 5 33 2 52 -30 22 -37 58 -49 68 -22 8
21 -43 95 -72 106 -29 11 -29 11 -65 1z"/>
<path d="M5284 4963 c-2 -10 -18 -43 -35 -73 -16 -30 -48 -92 -72 -138 -48
-95 -47 -103 25 -142 40 -21 48 -22 62 -10 27 22 16 53 -22 61 -18 4 -35 9
-37 11 -3 3 9 30 26 62 24 44 35 56 48 50 67 -28 72 -29 81 -15 12 20 2 40
-31 57 -32 16 -35 30 -14 59 15 19 16 19 69 -7 44 -22 57 -25 70 -15 27 20 10
40 -67 80 -83 42 -96 44 -103 20z"/>
<path d="M8501 4904 c0 -11 3 -14 6 -6 3 7 2 16 -1 19 -3 4 -6 -2 -5 -13z"/>
<path d="M5026 4777 c-21 -15 -12 -44 15 -52 24 -8 39 1 39 25 0 27 -32 43
-54 27z"/>
<path d="M12540 4750 c0 -5 -9 -10 -19 -10 -18 0 -19 -3 -10 -29 7 -21 7 -36
0 -50 -6 -11 -11 -45 -11 -76 0 -31 -5 -65 -11 -77 -9 -16 -7 -23 10 -35 12
-8 21 -23 21 -33 0 -10 4 -21 10 -25 5 -3 7 -12 4 -19 -3 -8 -1 -17 5 -21 6
-3 11 1 11 9 0 10 8 16 23 15 16 -1 18 -2 5 -6 -21 -5 -24 -33 -4 -33 7 0 20
-7 27 -17 11 -13 12 -17 1 -21 -10 -3 -8 -8 5 -18 12 -9 13 -13 5 -14 -9 0
-11 -7 -7 -19 3 -11 1 -22 -5 -26 -16 -10 -12 -28 5 -21 10 4 15 -1 15 -14 0
-11 4 -20 9 -20 5 0 11 -9 14 -21 4 -16 3 -18 -9 -8 -9 7 -14 8 -14 1 0 -6 5
-14 11 -18 7 -4 -7 -18 -34 -36 -43 -28 -47 -29 -75 -14 -16 8 -68 17 -116 21
-72 4 -86 3 -86 -10 0 -17 -16 -20 -25 -5 -10 15 -193 10 -210 -6 -7 -8 -16
-14 -20 -14 -3 0 -17 -13 -30 -29 -14 -16 -37 -31 -52 -34 -48 -10 -82 -102
-54 -146 10 -15 -4 -47 -27 -66 -7 -5 -12 -24 -12 -40 1 -17 2 -65 3 -107 2
-62 5 -78 17 -78 29 -1 -12 -17 -80 -30 -36 -7 -68 -18 -72 -24 -5 -7 -8 -7
-8 2 0 7 -5 10 -10 7 -6 -4 -8 -11 -5 -16 4 -5 -2 -9 -13 -9 -10 0 -27 -10
-38 -21 -19 -22 -19 -22 3 -10 25 13 130 6 149 -10 11 -9 11 -43 -1 -75 -4
-13 111 -69 223 -108 92 -33 107 -33 97 -3 -21 66 30 205 58 159 9 -13 -14
-115 -33 -153 l-19 -37 27 -11 c50 -19 86 -25 78 -12 -4 7 -3 18 4 25 6 8 12
30 14 48 4 46 12 58 42 58 13 0 33 9 44 20 23 23 42 25 73 8 12 -7 30 -13 40
-15 54 -9 93 -79 62 -113 -8 -9 -15 -25 -15 -36 0 -20 25 -63 44 -76 19 -14
-15 -8 -174 26 -164 36 -367 95 -495 145 -42 16 -84 27 -93 24 -9 -4 -13 -2
-9 4 5 7 -1 9 -14 6 -21 -6 -21 -6 3 -19 14 -7 28 -21 32 -29 3 -9 11 -13 17
-10 7 5 4 14 -8 27 -17 19 -17 19 34 -1 28 -11 78 -31 110 -45 32 -13 110 -41
173 -62 63 -21 123 -44 132 -52 11 -9 27 -12 44 -8 14 4 52 1 83 -5 47 -10 52
-13 31 -19 -20 -5 -10 -10 50 -23 41 -9 115 -23 164 -31 49 -9 91 -18 94 -21
9 -9 -56 -5 -82 5 -14 5 -63 14 -108 20 -46 5 -99 13 -118 16 -19 4 -33 4 -30
1 6 -6 343 -67 372 -67 14 0 18 8 18 34 0 19 -6 37 -12 39 -10 4 -10 6 0 6 19
1 16 99 -4 119 -15 15 -18 14 -35 -7 -10 -13 -16 -27 -13 -32 3 -5 1 -16 -3
-24 -8 -13 -11 -13 -31 1 -35 24 -29 104 9 124 18 10 73 -6 65 -19 -2 -3 2
-12 10 -19 12 -11 14 27 14 257 0 151 -4 281 -10 295 -6 17 -6 26 0 26 16 0
13 270 -2 271 -48 3 -63 9 -80 29 -23 29 -23 41 2 47 11 3 20 9 20 13 0 4 11
19 25 34 13 14 19 26 13 26 -6 0 -8 13 -6 29 2 17 1 28 -4 25 -4 -3 -8 15 -8
40 0 24 -5 57 -10 71 -10 27 -10 27 25 23 33 -4 34 -3 15 14 -10 10 -29 18
-42 18 -21 1 -20 2 7 14 20 9 34 10 43 3 9 -7 12 16 12 111 l0 121 -37 10
c-21 5 -69 12 -108 16 -38 3 -80 8 -92 11 -13 2 -23 0 -23 -6z m-223 -692 c-3
-8 -6 -5 -6 6 -1 11 2 17 5 13 3 -3 4 -12 1 -19z m261 -115 c11 -10 24 -32 30
-49 8 -25 6 -37 -15 -72 -15 -25 -35 -45 -50 -48 -78 -20 -134 104 -76 168 21
23 84 24 111 1z m-181 -5 c9 -16 4 -66 -8 -90 -5 -10 -16 -15 -24 -12 -18 7
-20 34 -2 35 10 0 10 2 0 6 -16 6 -17 28 -3 54 12 22 25 24 37 7z m64 -415
c17 -21 15 -79 -5 -98 -11 -12 -16 -12 -33 0 -16 11 -19 23 -17 62 1 26 3 49
3 51 3 9 39 -1 52 -15z m162 -390 c-7 -2 -19 -2 -25 0 -7 3 -2 5 12 5 14 0 19
-2 13 -5z m60 -10 c-7 -2 -21 -2 -30 0 -10 3 -4 5 12 5 17 0 24 -2 18 -5z m60
-10 c-7 -2 -21 -2 -30 0 -10 3 -4 5 12 5 17 0 24 -2 18 -5z"/>
<path d="M5630 4709 c-56 -23 -101 -87 -120 -176 -29 -128 61 -214 173 -165
93 41 152 176 117 268 -12 31 -39 53 -85 71 -37 14 -53 15 -85 2z m102 -81
c29 -29 28 -70 -1 -132 -36 -73 -101 -105 -147 -72 -43 32 -11 179 48 221 29
20 70 13 100 -17z"/>
<path d="M5330 4564 c-11 -12 -10 -18 3 -31 8 -9 23 -13 31 -10 21 8 21 43 0
51 -21 8 -20 8 -34 -10z"/>
<path d="M7191 4514 c0 -11 3 -14 6 -6 3 7 2 16 -1 19 -3 4 -6 -2 -5 -13z"/>
<path d="M8512 4450 c0 -14 2 -19 5 -12 2 6 2 18 0 25 -3 6 -5 1 -5 -13z"/>
<path d="M10666 4407 c-19 -34 -324 -659 -382 -784 -18 -40 -31 -73 -29 -73 6
0 362 711 404 808 35 78 38 102 7 49z"/>
<path d="M6209 4390 c-61 -32 -159 -168 -159 -220 0 -36 35 -88 64 -96 32 -8
66 11 66 38 0 17 -4 20 -29 15 -56 -11 -69 44 -25 109 54 81 134 148 149 124
9 -15 32 -12 39 5 7 19 -20 45 -47 45 -12 -1 -38 -9 -58 -20z"/>
<path d="M6268 4160 c-47 -25 -58 -65 -32 -121 20 -45 49 -57 92 -40 50 21 89
110 64 147 -10 16 -48 34 -69 34 -10 -1 -34 -10 -55 -20z m65 -44 c23 -18 22
-28 -9 -57 -25 -24 -26 -24 -40 -5 -19 27 -18 53 4 65 22 13 23 13 45 -3z"/>
<path d="M6742 4132 c-15 -35 -20 -39 -52 -38 -31 1 -35 -2 -35 -24 0 -20 5
-25 23 -23 28 3 28 -6 -3 -67 -41 -80 -65 -148 -59 -165 7 -17 37 -20 65 -5
20 11 27 56 9 62 -6 2 5 35 24 75 33 68 36 71 67 70 42 -2 51 24 14 41 -25 12
-25 12 -10 48 20 49 19 64 -6 64 -14 0 -25 -11 -37 -38z"/>
<path d="M7021 4140 c14 -31 19 -36 19 -24 0 6 -7 19 -16 30 -14 18 -14 18 -3
-6z"/>
<path d="M4485 4038 c-58 -79 -58 -96 0 -127 25 -13 48 -21 51 -18 13 12 -7
39 -36 50 -17 6 -30 14 -30 17 0 8 50 60 58 60 10 0 33 61 26 71 -11 18 -25 7
-69 -53z"/>
<path d="M6455 4088 c-2 -7 -16 -46 -30 -86 -40 -113 -20 -138 40 -48 34 51
65 78 65 55 0 -6 -12 -35 -27 -65 -18 -37 -23 -58 -16 -65 18 -18 42 2 68 56
42 90 28 156 -30 141 -18 -5 -25 -2 -25 9 0 18 -39 20 -45 3z"/>
<path d="M2398 4055 c-13 -19 -28 -35 -35 -35 -7 0 -16 -6 -20 -14 -4 -7 -18
-18 -30 -25 -25 -13 -32 -47 -9 -38 10 4 13 1 9 -9 -3 -7 -9 -14 -14 -14 -10
0 -32 -40 -26 -47 10 -9 47 18 48 35 0 10 3 12 6 5 8 -22 20 -15 33 20 8 17
20 39 27 49 14 16 46 108 38 108 -3 0 -15 -16 -27 -35z"/>
<path d="M7140 4080 c-9 -6 -10 -10 -3 -10 6 0 15 5 18 10 8 12 4 12 -15 0z"/>
<path d="M4644 4056 c-7 -20 2 -46 16 -46 13 0 13 47 0 55 -6 3 -13 -1 -16 -9z"/>
<path d="M8515 3960 c7 -11 65 -43 65 -36 0 2 -16 13 -36 25 -19 12 -32 16
-29 11z"/>
<path d="M538 3945 c-4 -4 -57 -15 -118 -25 -62 -11 -117 -23 -124 -28 -6 -5
-36 -12 -66 -16 -30 -4 -82 -18 -116 -32 -33 -13 -73 -24 -87 -24 l-27 0 0
-1910 0 -1910 1816 0 c1285 0 1813 3 1809 11 -4 6 -14 8 -22 4 -9 -3 -27 2
-41 11 -25 17 -40 20 -94 23 -18 1 -28 7 -28 17 0 13 -7 15 -40 9 -22 -4 -40
-3 -40 2 0 12 -67 36 -79 28 -5 -3 -12 -1 -16 4 -3 6 -13 7 -21 4 -9 -3 -20 0
-25 8 -4 8 -14 14 -21 15 -7 0 -26 2 -41 2 -18 1 -26 6 -21 13 4 8 0 9 -15 4
-11 -3 -21 -2 -21 3 0 10 -50 35 -58 28 -2 -3 -13 -1 -24 5 -14 7 -23 7 -34
-2 -11 -9 -17 -9 -28 0 -13 11 -140 47 -188 55 -9 1 -22 7 -30 13 -7 6 -24 9
-38 8 -14 -1 -30 5 -37 14 -7 9 -12 11 -13 4 0 -13 -41 -4 -89 20 -16 8 -41
12 -55 10 -19 -4 -26 -1 -26 11 0 12 -10 16 -40 16 -22 0 -40 5 -40 11 0 5 -4
8 -9 4 -5 -3 -26 6 -47 20 -20 14 -50 25 -65 25 -16 0 -29 4 -29 10 0 5 -6 7
-14 4 -8 -3 -23 4 -33 15 -10 11 -28 22 -40 24 -12 1 -28 8 -35 15 -8 6 -18 9
-22 5 -4 -4 -10 -2 -14 4 -10 15 -92 28 -92 14 0 -6 -5 -11 -12 -11 -6 0 -8 3
-5 6 7 7 -36 44 -51 44 -6 0 -12 4 -14 10 -3 8 -38 23 -181 76 -21 8 -42 12
-47 9 -4 -2 -11 5 -15 18 -4 13 -8 17 -12 10 -8 -20 -23 -15 -23 7 0 25 -20
27 -21 3 0 -15 -2 -15 -7 -3 -4 8 -11 15 -17 15 -32 1 -75 19 -75 30 0 9 -6
12 -17 8 -10 -4 -14 -2 -9 5 3 6 1 14 -5 18 -6 3 -15 1 -19 -6 -6 -10 -11 -7
-21 9 -8 11 -20 21 -27 21 -17 0 -55 22 -65 38 -4 6 -25 21 -45 31 -20 10 -50
31 -67 46 -16 15 -31 23 -33 17 -4 -13 -32 -4 -32 10 0 6 7 8 15 4 10 -3 15 1
15 13 0 17 29 39 60 45 8 2 22 6 30 9 8 3 32 11 53 17 39 12 46 24 23 37 -12
8 -69 89 -72 106 -1 4 -2 10 -3 15 -1 4 -6 0 -11 -8 -8 -12 -10 -9 -10 12 0
36 -42 58 -99 53 -33 -3 -44 0 -53 15 -9 14 -16 16 -25 8 -9 -7 -17 -7 -29 3
-15 12 -14 15 6 31 l22 18 -26 0 c-18 0 -30 -8 -41 -30 -10 -20 -20 -27 -31
-23 -14 5 -14 7 2 17 30 17 27 35 -4 30 -15 -2 -64 -5 -110 -7 -64 -3 -80 -2
-72 8 5 6 7 15 3 18 -3 4 1 7 10 7 8 0 23 3 33 7 12 4 15 3 10 -5 -5 -8 4 -12
28 -12 20 0 36 5 36 10 0 6 -3 9 -7 9 -5 -1 -17 -1 -28 1 l-20 1 20 9 c11 4
63 8 115 9 112 1 160 9 160 26 0 13 -80 84 -117 103 -12 7 -41 12 -65 12 -24
0 -49 5 -55 11 -8 8 -17 8 -30 1 -11 -6 -31 -12 -46 -14 -14 -2 -29 -7 -33
-11 -4 -4 -20 -7 -36 -7 -16 0 -27 -4 -23 -10 3 -6 -5 -6 -23 1 -15 5 -39 8
-52 7 -17 -2 -27 4 -36 21 -7 13 -20 28 -28 33 -9 5 -16 15 -16 22 0 19 -31
44 -60 48 -14 1 -26 9 -26 16 -1 6 -2 21 -3 31 0 11 -7 26 -14 33 -20 21 -59
106 -54 120 2 7 -4 28 -14 47 -10 19 -21 54 -25 78 -3 24 -10 46 -15 49 -5 3
-9 14 -9 24 0 10 -6 25 -13 32 -29 30 -69 192 -81 333 -2 17 -5 37 -8 45 -21
61 -28 90 -28 116 0 16 -9 57 -19 91 -10 34 -16 64 -13 67 2 3 -1 13 -8 22
-23 26 -17 165 13 359 68 429 67 428 172 614 80 142 133 199 223 242 35 17 61
36 59 42 -4 13 -148 23 -159 12z"/>
<path d="M4586 3903 c-29 -50 -29 -86 0 -62 15 12 54 85 54 101 0 4 -6 8 -14
8 -8 0 -26 -21 -40 -47z"/>
<path d="M4663 3928 c-4 -7 -13 -33 -20 -58 -7 -25 -15 -55 -19 -67 -8 -30 18
-31 53 -3 14 11 30 20 34 20 17 0 9 -34 -13 -57 -16 -18 -19 -26 -10 -35 15
-15 45 11 62 53 10 24 10 33 -5 55 -9 14 -22 23 -28 21 -50 -21 -49 -23 -26
62 5 18 -17 26 -28 9z"/>
<path d="M7230 3894 c-16 -26 -31 -51 -33 -57 -1 -5 -20 0 -42 12 -36 19 -41
19 -55 5 -13 -14 -13 -17 6 -32 12 -9 30 -22 40 -28 17 -10 16 -15 -18 -80
-65 -123 -71 -194 -17 -194 26 0 42 35 35 78 -5 30 0 48 27 97 33 57 36 60 73
60 47 0 58 25 19 43 -17 8 -23 17 -19 25 4 6 18 29 31 50 19 30 22 41 12 53
-18 22 -27 17 -59 -32z"/>
<path d="M2176 3902 c-4 -12 -18 -30 -32 -41 -30 -24 -30 -31 0 -31 13 0 26
-5 28 -12 2 -6 18 2 37 21 19 19 30 38 27 47 -7 17 -26 19 -26 2 -1 -7 -7 -2
-14 11 -13 24 -14 24 -20 3z"/>
<path d="M4867 3868 c-3 -23 -21 -73 -40 -111 -28 -57 -32 -70 -19 -74 8 -4
20 1 26 9 10 14 15 13 39 -8 16 -13 32 -24 38 -24 17 0 9 26 -16 50 -32 30
-31 35 5 50 37 15 42 45 6 36 -23 -6 -23 -5 -13 38 10 44 5 76 -11 76 -5 0
-12 -19 -15 -42z"/>
<path d="M6791 3892 c-44 -24 -71 -74 -71 -134 0 -39 4 -50 25 -64 29 -19 59
-15 63 9 3 12 -4 20 -17 24 -15 4 -21 13 -21 33 0 27 1 28 30 17 68 -26 135
49 96 108 -20 30 -57 33 -105 7z m69 -41 c0 -16 -27 -31 -45 -25 -17 7 -17 8
1 21 20 15 44 17 44 4z"/>
<path d="M8676 3885 c-9 -26 -7 -32 5 -12 6 10 9 21 6 23 -2 3 -7 -2 -11 -11z"/>
<path d="M2078 3828 c-11 -9 -13 -20 -8 -38 6 -19 8 -21 9 -6 1 11 8 28 18 38
18 20 5 25 -19 6z"/>
<path d="M6917 3824 c-4 -4 -7 -20 -7 -35 0 -16 -9 -51 -20 -78 -11 -28 -17
-58 -14 -66 10 -26 38 -12 56 27 10 20 28 44 40 52 38 27 44 -4 12 -74 -26
-58 -27 -95 -1 -88 17 5 77 126 77 155 0 35 -45 76 -75 69 -19 -5 -24 -2 -27
16 -3 23 -27 35 -41 22z"/>
<path d="M732 3703 c-31 -46 -91 -209 -123 -334 -32 -128 -49 -289 -49 -469 0
-204 84 -537 227 -895 67 -170 87 -210 158 -319 30 -46 55 -88 55 -93 0 -4 32
-42 70 -83 39 -41 84 -93 102 -115 32 -41 103 -100 148 -123 14 -7 34 -18 45
-25 176 -109 208 -120 251 -92 25 16 27 16 50 -6 20 -19 27 -20 51 -10 26 11
106 99 147 162 16 25 13 59 -5 59 -4 0 -31 -9 -59 -20 -67 -26 -107 -26 -115
0 -4 12 -11 17 -18 13 -9 -5 -9 -3 -1 8 6 8 13 28 16 45 3 27 0 33 -24 42 -18
6 -28 18 -28 30 0 22 24 47 38 38 5 -3 9 7 8 22 -1 15 -7 28 -13 28 -7 1 -16
3 -20 4 -5 1 -11 2 -15 1 -5 0 -8 4 -8 10 0 7 -9 9 -21 6 -29 -8 -83 31 -68
49 7 9 7 19 -1 34 -6 11 -8 25 -4 31 4 8 -4 9 -27 4 -19 -4 -35 -11 -37 -16
-7 -17 -62 -9 -82 11 -11 11 -31 20 -44 20 -35 0 -56 10 -56 26 0 7 -11 16
-25 20 -21 5 -24 10 -18 33 3 14 11 29 17 33 18 12 -1 21 -21 10 -11 -7 -18
-22 -18 -39 0 -23 -5 -28 -27 -30 -32 -2 -36 12 -9 29 19 11 18 12 -2 28 -34
25 -55 30 -61 14 -3 -8 -10 -14 -16 -14 -6 0 -8 5 -4 11 5 8 -1 10 -20 7 -35
-7 -80 15 -104 50 -27 39 -52 97 -52 120 0 11 -6 22 -14 25 -8 3 -21 25 -27
49 -7 24 -16 45 -19 48 -7 5 -46 87 -60 125 -4 11 -24 54 -44 96 -20 41 -36
81 -36 87 0 7 -4 20 -9 30 -17 31 -61 226 -67 292 -21 282 -8 491 41 645 23
70 76 315 69 315 -1 0 -11 -12 -22 -27z"/>
<path d="M7872 3685 c0 -16 2 -22 5 -12 2 9 2 23 0 30 -3 6 -5 -1 -5 -18z"/>
<path d="M4220 3688 c0 -7 14 -26 30 -43 l30 -31 -31 -63 c-17 -34 -29 -65
-26 -68 14 -13 36 9 58 55 13 28 32 52 42 55 28 8 20 25 -28 59 -25 18 -45 35
-45 40 0 4 -7 8 -15 8 -8 0 -15 -5 -15 -12z"/>
<path d="M5012 3680 c-19 -8 -22 -16 -20 -47 3 -32 0 -38 -17 -38 -23 0 -33
-30 -12 -38 8 -3 28 2 46 11 30 14 32 19 28 48 -4 22 -1 37 9 45 31 25 11 37
-34 19z"/>
<path d="M8297 3578 c-50 -133 -71 -204 -64 -220 3 -9 34 -23 69 -32 112 -31
108 -30 108 -9 0 15 -13 24 -51 36 -28 10 -60 17 -70 17 -11 0 -19 4 -19 9 0
9 34 103 76 209 14 34 22 67 19 72 -16 26 -35 3 -68 -82z"/>
<path d="M8582 3608 c-7 -7 -12 -29 -12 -51 0 -31 3 -38 18 -35 12 2 18 15 20
42 4 43 -8 62 -26 44z"/>
<path d="M4382 3598 c-17 -17 -15 -38 3 -38 16 0 38 34 28 44 -9 9 -18 7 -31
-6z"/>
<path d="M4476 3548 c-9 -12 -16 -28 -16 -35 0 -17 -17 -17 -23 0 -3 9 -7 9
-17 0 -10 -9 -10 -18 -1 -41 10 -24 10 -36 -3 -67 -9 -20 -13 -41 -10 -47 10
-16 27 -3 39 33 8 24 18 34 33 34 30 0 40 15 19 30 -20 14 -15 56 9 76 8 6 14
18 14 25 0 22 -27 16 -44 -8z"/>
<path d="M7840 3550 c0 -5 5 -10 10 -10 6 0 10 5 10 10 0 6 -4 10 -10 10 -5 0
-10 -4 -10 -10z"/>
<path d="M4320 3483 c-6 -16 -15 -38 -21 -50 -12 -23 -4 -47 13 -37 16 10 50
93 43 104 -11 18 -25 11 -35 -17z"/>
<path d="M4581 3486 c-22 -26 -71 -175 -60 -182 15 -9 17 -4 56 88 18 46 36
89 40 96 7 17 -22 15 -36 -2z"/>
<path d="M8984 3488 c-5 -7 -19 -44 -32 -83 -13 -38 -25 -71 -27 -73 -2 -2
-17 4 -34 14 -25 15 -33 16 -43 5 -13 -13 0 -29 47 -56 16 -10 16 -14 1 -65
-19 -65 -21 -110 -3 -110 21 0 37 22 37 51 0 52 13 92 32 96 19 6 24 28 9 38
-6 3 3 42 19 90 23 69 26 86 15 95 -10 8 -15 8 -21 -2z"/>
<path d="M5906 3413 c-15 -8 -36 -29 -45 -45 -9 -17 -37 -67 -63 -111 -27 -44
-48 -89 -48 -99 0 -21 51 -47 185 -93 44 -15 87 -33 96 -41 32 -28 34 -26 123
123 29 49 35 67 27 81 -20 37 -220 204 -240 201 -3 -1 -19 -8 -35 -16z m145
-114 c48 -41 88 -80 88 -87 1 -8 -7 -26 -18 -40 -10 -15 -28 -46 -40 -70 l-22
-42 -29 15 c-16 8 -34 15 -40 15 -8 0 -190 68 -198 75 -1 1 19 38 45 83 27 44
56 94 65 111 22 41 38 34 149 -60z"/>
<path d="M8548 3418 c-9 -7 -24 -38 -33 -68 -10 -30 -24 -67 -31 -81 -13 -27
-5 -54 16 -47 7 2 27 44 46 93 35 93 40 115 26 115 -5 0 -15 -6 -24 -12z"/>
<path d="M8662 3370 c-23 -11 -45 -26 -48 -35 -12 -30 13 -63 55 -75 51 -14
58 -26 34 -58 -15 -20 -27 -26 -47 -24 -30 4 -36 -17 -10 -38 11 -10 23 -11
42 -4 28 10 72 66 72 94 0 24 -38 60 -71 67 -41 8 -45 21 -13 35 22 10 28 10
32 0 5 -15 38 -16 47 -2 4 6 1 18 -6 26 -25 30 -44 33 -87 14z"/>
<path d="M4592 3327 c-45 -48 -11 -151 43 -131 22 9 18 34 -5 34 -11 0 -20 4
-20 9 0 5 -3 17 -7 26 -5 15 -3 16 14 7 30 -16 56 6 51 43 -4 40 -44 46 -76
12z"/>
<path d="M6664 3339 c-3 -6 -3 -13 0 -16 3 -4 6 0 7 8 0 8 3 6 8 -5 6 -17 8
-17 14 -4 7 18 -19 33 -29 17z"/>
<path d="M11870 3293 c0 -10 112 -55 118 -48 3 2 -6 9 -19 14 -13 5 -41 16
-61 25 -21 9 -38 13 -38 9z"/>
<path d="M11803 3263 c20 -23 22 -42 5 -44 -7 -1 -46 -2 -87 -3 -48 -1 -76 -5
-78 -13 -2 -7 -11 -9 -19 -6 -8 3 -14 0 -14 -6 0 -6 -9 -11 -20 -11 -32 0 -92
-28 -85 -40 4 -7 15 -3 31 9 37 29 73 15 99 -37 l20 -42 55 2 c34 1 66 9 82
21 27 18 28 18 61 -7 19 -14 46 -26 60 -26 15 0 27 -4 27 -10 0 -5 -6 -10 -14
-10 -9 0 -12 -7 -9 -20 3 -12 0 -20 -6 -20 -7 0 -9 -4 -6 -10 3 -5 15 -10 26
-10 10 0 19 -4 19 -10 0 -5 -7 -6 -17 -3 -12 5 -14 3 -8 -7 5 -8 4 -11 -3 -6
-6 3 -13 2 -17 -3 -3 -6 -12 -8 -20 -4 -8 3 -15 0 -15 -6 0 -6 -7 -11 -15 -11
-9 0 -15 -9 -15 -22 0 -21 0 -21 14 -2 16 22 30 15 20 -10 -3 -9 -17 -16 -33
-16 -18 0 -22 -3 -12 -9 10 -7 10 -10 1 -16 -7 -4 -16 -2 -20 5 -8 14 -40 7
-40 -9 0 -5 10 -11 22 -14 12 -4 19 -9 15 -13 -3 -3 -14 -3 -24 1 -24 11 -55
6 -74 -11 -8 -8 -24 -14 -34 -14 -14 0 -15 -3 -6 -14 10 -12 8 -13 -8 -9 -12
3 -21 1 -21 -6 0 -6 5 -11 12 -11 7 0 5 -7 -5 -17 -13 -16 -13 -20 -1 -31 8
-7 18 -11 22 -8 4 3 13 -4 20 -15 15 -23 7 -24 -32 -4 -16 9 -31 13 -33 11 -3
-3 14 -14 38 -27 30 -15 44 -18 47 -10 3 9 10 7 23 -5 10 -9 19 -13 19 -8 0 5
4 4 8 -1 12 -18 108 -75 125 -75 9 0 19 -5 22 -10 4 -6 11 -8 16 -5 5 4 9 2 9
-4 0 -19 188 -92 275 -106 22 -3 80 -16 129 -28 68 -17 90 -19 94 -9 5 17 41
15 48 -3 3 -8 21 -17 40 -21 19 -3 31 -11 28 -16 -6 -9 -73 -7 -147 5 -12 2
-16 2 -9 0 11 -4 18 -23 8 -23 -12 0 -146 32 -186 45 -25 8 -58 16 -75 19 -16
2 -48 11 -70 19 -42 15 -145 12 -145 -4 0 -5 6 -9 13 -9 6 0 -7 -12 -30 -26
-25 -14 -43 -33 -43 -43 0 -9 -8 -26 -18 -37 -10 -10 -21 -27 -25 -36 -4 -12
-17 -18 -37 -18 -16 0 -30 -4 -30 -10 0 -5 -10 -10 -23 -10 -31 0 -47 -18 -47
-52 0 -15 -4 -28 -10 -28 -5 0 -10 5 -10 12 0 6 -11 2 -23 -11 -15 -13 -30
-19 -41 -15 -12 5 -15 2 -10 -10 5 -13 -1 -16 -26 -16 -19 0 -29 -4 -25 -10
10 -16 -35 -56 -67 -62 -16 -3 -28 -2 -28 2 0 9 -57 6 -66 -3 -3 -3 -20 -1
-37 4 -58 16 -64 13 -61 -33 1 -32 7 -44 23 -52 12 -5 20 -15 17 -22 -3 -8 3
-10 17 -7 15 3 18 2 9 -5 -9 -6 20 -23 100 -57 62 -26 115 -52 116 -56 2 -5
16 -9 30 -9 15 -1 68 -16 117 -36 50 -19 144 -51 210 -70 66 -20 135 -44 153
-55 18 -10 44 -19 57 -19 13 0 36 -5 52 -11 55 -21 267 -79 290 -79 20 0 83
-65 72 -74 -38 -33 -110 -33 -209 -2 -127 40 -339 125 -380 152 -47 31 -102
49 -248 79 -62 13 -119 29 -127 35 -8 7 -42 10 -82 9 -159 -5 -358 46 -433
112 -45 39 -71 49 -125 49 l-45 0 30 -59 c34 -65 37 -89 15 -97 -43 -17 5
-103 61 -110 14 -1 33 -12 41 -23 8 -12 22 -21 31 -21 10 0 25 -9 35 -20 9
-11 22 -17 29 -15 8 3 21 -8 31 -25 10 -16 29 -33 43 -36 13 -3 24 -10 24 -14
0 -5 26 -14 58 -21 57 -13 163 -57 193 -81 9 -7 21 -23 28 -35 14 -26 46 -30
114 -11 39 10 49 9 99 -14 31 -15 59 -34 62 -45 3 -11 24 -29 46 -42 41 -23
80 -28 118 -16 17 6 22 3 22 -9 0 -11 9 -16 29 -16 16 0 34 -7 41 -15 9 -10
27 -15 54 -13 69 4 122 -2 108 -10 -17 -12 73 -48 165 -67 44 -9 46 -15 15
-52 -25 -29 -33 -32 -104 -37 -77 -6 -115 7 -58 19 33 7 51 25 25 25 -9 0 -28
9 -43 20 -20 15 -36 19 -60 14 -17 -4 -29 -10 -26 -15 7 -12 -13 -11 -37 2
-11 5 -16 15 -13 21 4 6 1 16 -7 22 -8 6 -14 18 -14 26 0 8 -13 17 -30 20 -16
4 -40 12 -52 19 -15 7 -23 8 -23 1 0 -5 -8 -10 -17 -10 -13 -1 -9 -5 10 -16
40 -22 27 -28 -18 -10 -20 9 -42 13 -48 9 -6 -4 -7 -1 -3 6 5 8 3 12 -5 10
-19 -3 -79 21 -79 31 0 12 -133 72 -139 63 -3 -5 -18 -14 -33 -20 -23 -10 -30
-9 -51 8 -14 10 -29 19 -34 19 -4 0 -1 -5 7 -11 13 -9 13 -10 0 -6 -8 2 -15
10 -15 18 0 9 -14 15 -38 17 -22 1 -51 9 -67 17 -15 8 -58 26 -96 40 -38 14
-87 38 -109 53 -55 37 -86 49 -112 44 -21 -4 -21 -5 -6 -28 12 -18 12 -24 2
-24 -15 0 -69 49 -69 63 0 19 -66 62 -75 48 -9 -16 11 -55 44 -84 17 -15 31
-33 31 -41 0 -8 14 -26 31 -41 43 -36 29 -44 -21 -11 -22 14 -46 26 -55 26 -8
0 -23 9 -32 20 -10 11 -28 20 -40 20 -19 0 -23 -6 -23 -28 0 -35 21 -55 75
-72 51 -17 145 -105 145 -136 0 -12 -4 -26 -10 -29 -16 -10 -11 -32 14 -61
l24 -28 8 34 c4 19 7 41 5 48 -1 7 14 19 33 27 32 14 37 13 83 -12 26 -15 59
-35 72 -45 13 -10 31 -16 40 -14 18 6 136 -54 132 -67 -2 -4 5 -20 14 -34 12
-17 13 -23 4 -18 -8 5 -6 0 3 -11 13 -15 31 -20 72 -21 30 -1 67 -8 83 -16 16
-9 47 -19 68 -23 22 -4 78 -22 125 -40 97 -37 186 -61 250 -68 25 -3 63 -10
85 -15 22 -6 57 -13 78 -16 39 -6 52 -25 17 -25 -25 0 -25 -9 -2 -26 16 -12
16 -14 0 -42 -20 -33 -22 -32 77 -36 25 0 45 -2 45 -4 0 -10 -31 -32 -61 -45
-40 -16 -68 -59 -51 -79 16 -20 3 -66 -22 -74 -11 -4 -73 -7 -135 -6 -73 0
-110 -3 -100 -9 11 -7 9 -9 -9 -9 -13 0 -21 4 -17 9 3 5 0 13 -7 17 -18 12
-108 22 -102 12 3 -4 13 -8 22 -8 9 0 22 -4 29 -8 7 -4 -20 -6 -60 -4 -40 2
-78 9 -84 14 -7 6 -25 7 -39 4 -17 -5 -55 3 -108 20 -128 41 -133 44 -146 72
-7 16 -15 22 -17 15 -6 -17 -33 -16 -76 2 -43 18 -50 19 -42 5 3 -6 -18 0 -47
13 -29 13 -53 30 -53 38 -1 8 -7 24 -14 37 -7 13 -10 29 -8 37 8 19 -21 55
-44 55 -15 0 -19 -5 -14 -19 3 -10 -1 -24 -10 -31 -8 -7 -12 -17 -8 -23 9 -15
-71 32 -112 66 -19 16 -33 33 -30 38 6 9 -59 104 -86 125 -8 7 -31 11 -52 11
-33 -1 -45 6 -98 58 -34 33 -88 101 -121 150 -33 50 -57 80 -54 68 4 -12 3
-24 -3 -27 -10 -7 2 -53 27 -101 53 -103 55 -106 43 -118 -15 -15 -13 -67 4
-97 18 -32 19 -89 1 -96 -7 -3 -30 1 -49 10 -42 17 -98 98 -166 239 -26 55
-46 85 -53 81 -6 -4 -17 1 -24 10 -7 10 -15 17 -18 17 -3 -1 -13 -1 -23 -1
-15 0 -15 1 0 18 10 10 17 24 17 30 0 7 4 12 10 12 5 0 6 8 3 17 -5 13 -2 15
11 10 13 -5 17 -2 15 11 -4 23 10 75 22 83 5 3 11 41 13 84 4 60 1 83 -11 102
-11 17 -18 21 -24 12 -4 -7 -21 -12 -37 -11 -27 1 -34 -6 -59 -54 -25 -48 -29
-52 -40 -37 -12 16 -14 16 -26 -2 -8 -10 -19 -15 -25 -11 -7 4 -12 1 -12 -8 0
-9 -8 -16 -17 -16 -20 -1 -54 -24 -54 -37 0 -4 -9 -8 -20 -7 -15 0 -19 -5 -17
-25 2 -21 -1 -25 -16 -23 -10 2 -16 0 -14 -5 2 -4 13 -27 24 -50 10 -24 25
-43 32 -43 6 0 12 -7 12 -15 0 -9 11 -20 25 -25 27 -10 26 -29 -3 -46 -51 -32
-112 -63 -112 -57 0 3 -9 -2 -20 -12 -11 -10 -28 -15 -40 -12 -13 3 -20 0 -20
-8 0 -20 -77 -30 -106 -14 -21 11 -26 10 -42 -9 -13 -15 -22 -18 -29 -11 -8 8
-13 7 -17 0 -11 -18 -26 -13 -26 9 0 26 -16 26 -23 0 -4 -15 -14 -20 -44 -21
-37 -1 -38 -1 -8 -9 l30 -8 -30 -2 c-16 -1 -33 -2 -37 -1 -4 0 -6 -12 -5 -27
2 -24 -2 -27 -30 -30 -36 -4 -46 -22 -12 -22 11 0 18 -4 15 -9 -3 -4 -16 -6
-29 -4 -14 3 -29 -2 -36 -11 -8 -9 -27 -16 -43 -16 -21 0 -31 -6 -35 -20 -6
-22 -23 -27 -23 -7 -1 7 -6 5 -14 -6 -9 -11 -15 -14 -18 -7 -2 7 -18 -2 -36
-20 -18 -17 -45 -35 -59 -41 -22 -8 -24 -12 -13 -19 12 -8 11 -10 -6 -10 -23
0 -40 -35 -23 -46 5 -3 7 -9 4 -14 -2 -4 15 -13 39 -19 29 -7 47 -18 51 -30 3
-11 14 -23 25 -26 10 -3 23 -12 30 -20 9 -11 5 -17 -21 -30 -17 -9 -43 -15
-58 -12 -25 4 -115 39 -154 59 -10 5 -38 13 -63 17 -38 7 -46 6 -54 -10 -13
-23 -5 -42 47 -111 24 -31 43 -65 43 -77 0 -26 -21 -74 -37 -84 -7 -4 -13 -14
-13 -22 0 -8 -6 -18 -13 -22 -7 -4 -26 -29 -42 -56 -34 -53 -41 -57 -111 -58
-62 -2 -129 29 -184 84 -38 39 -105 131 -105 146 0 21 -42 86 -80 125 -45 47
-78 58 -89 31 -3 -8 -12 -15 -20 -15 -8 0 -31 -17 -51 -38 -21 -20 -42 -37
-46 -37 -5 0 -8 -3 -6 -7 1 -3 -10 -16 -25 -28 -16 -12 -28 -28 -28 -35 0 -8
-8 -20 -17 -27 -10 -7 -23 -22 -29 -32 -6 -11 -17 -23 -25 -26 -8 -4 -30 -15
-49 -24 -41 -19 -145 -33 -120 -15 12 8 10 9 -8 4 -37 -11 -137 31 -151 63
-10 21 -14 23 -22 11 -6 -10 -9 -7 -9 14 0 23 -4 28 -22 27 -40 -4 -50 0 -45
14 4 10 1 13 -9 9 -7 -3 -14 0 -14 6 0 7 -13 10 -34 7 -28 -3 -34 -1 -29 11 3
8 0 19 -8 23 -7 5 -10 12 -6 17 5 4 12 1 17 -7 5 -8 13 -11 17 -6 4 4 0 13
-10 20 -9 7 -17 18 -17 24 0 6 -7 9 -15 6 -8 -4 -12 -11 -9 -16 4 -6 1 -9 -7
-6 -8 2 -15 19 -17 36 -3 28 -22 47 -22 22 0 -5 -4 -10 -10 -10 -5 0 -9 6 -7
13 3 15 -73 12 -83 -3 -4 -6 -20 -13 -36 -16 -16 -3 -33 -10 -39 -17 -5 -7
-30 -13 -54 -14 -24 -2 -50 -8 -57 -14 -11 -9 -18 -8 -29 1 -10 9 -15 9 -15 1
0 -6 -6 -11 -14 -11 -7 0 -19 -7 -26 -15 -11 -13 -15 -13 -21 -3 -7 10 -9 10
-9 1 0 -7 -9 -13 -19 -13 -11 0 -23 -5 -27 -11 -4 -6 -19 -9 -37 -5 -37 7 -57
-7 -49 -37 5 -19 3 -20 -10 -10 -8 7 -19 9 -23 5 -5 -4 -5 1 -2 10 7 19 -17
26 -28 8 -3 -6 -15 -10 -26 -10 -11 0 -18 4 -14 10 3 5 -7 5 -25 -2 -20 -7
-29 -15 -26 -24 3 -9 -1 -14 -13 -14 -10 0 -35 -7 -54 -15 -45 -19 -117 -20
-117 -2 0 8 -3 8 -8 1 -9 -13 -74 -12 -85 1 -6 6 -10 6 -14 -2 -6 -16 -65 -17
-81 -1 -9 9 -12 9 -12 0 0 -7 -7 -12 -16 -12 -13 0 -15 -9 -12 -45 3 -42 1
-45 -24 -51 -16 -3 -28 -10 -28 -15 0 -18 -57 -9 -109 17 -35 18 -50 31 -47
41 4 8 -5 18 -22 26 -30 14 -61 46 -62 65 0 6 -11 12 -25 12 -26 0 -34 15 -13
22 7 3 5 7 -6 11 -10 4 -15 3 -11 -3 3 -6 2 -10 -4 -10 -18 0 -20 34 -16 270
3 229 4 236 29 280 25 46 73 170 79 206 1 10 6 25 10 31 6 10 -2 13 -32 13
-72 0 -273 49 -429 105 -13 5 -13 3 26 -73 9 -17 19 -32 23 -32 4 0 9 -8 13
-17 3 -10 9 -25 14 -33 31 -53 44 -77 49 -92 3 -10 13 -20 23 -23 28 -9 90
-83 84 -99 -3 -8 -1 -24 5 -35 8 -15 8 -22 -2 -28 -7 -4 -23 -29 -35 -55 -21
-46 -64 -88 -70 -68 -2 5 -21 10 -42 10 -33 0 -41 -5 -59 -34 -17 -26 -21 -50
-21 -113 0 -115 -11 -139 -77 -170 -57 -27 -67 -42 -78 -106 -4 -22 -13 -41
-23 -44 -9 -4 -22 -12 -29 -19 -7 -7 -40 -15 -73 -19 -33 -4 -60 -11 -60 -16
0 -5 -8 -9 -18 -9 -10 0 -27 -7 -38 -15 -10 -8 -28 -15 -40 -15 -23 0 -62 -40
-56 -58 2 -7 -1 -12 -7 -12 -6 0 -11 -8 -11 -17 -1 -17 -2 -17 -15 1 -7 10
-19 15 -25 11 -6 -4 -18 1 -25 11 -14 18 -14 18 -15 1 0 -27 -17 -12 -23 22
-4 18 -14 32 -27 36 -11 3 -20 12 -20 18 0 7 -9 23 -20 37 -11 14 -20 33 -20
43 0 9 -4 17 -10 17 -5 0 -13 12 -16 27 -7 25 -8 25 -25 -19 -9 -24 -29 -86
-42 -136 l-26 -92 3870 0 3869 0 0 490 0 490 -40 0 c-41 0 -90 17 -90 32 0 7
49 4 108 -8 l22 -4 0 1005 c0 846 -2 1005 -14 1005 -7 0 -29 3 -47 6 -27 4
-31 3 -19 -6 12 -9 6 -10 -25 -5 -22 4 -45 11 -50 15 -6 5 -33 14 -60 20 -28
6 -59 13 -70 16 -11 2 -4 -4 15 -15 19 -11 44 -20 55 -21 11 0 58 -13 105 -29
66 -22 86 -33 88 -49 6 -37 -32 -47 -91 -24 -29 11 -77 28 -107 37 -30 10 -71
26 -90 36 -19 10 -60 23 -92 28 -71 12 -128 36 -129 53 -1 25 -55 55 -164 91
-92 30 -156 54 -305 114 -12 5 -11 2 3 -14z m80 -37 c10 -3 16 -10 13 -15 -7
-11 -54 9 -60 26 -4 9 0 10 12 4 9 -5 25 -12 35 -15z m472 -266 c3 -5 -1 -10
-10 -10 -9 0 -13 5 -10 10 3 6 8 10 10 10 2 0 7 -4 10 -10z m8 -34 c31 -24 25
-109 -17 -242 -32 -99 -43 -111 -85 -89 -30 15 -31 17 -31 89 0 65 3 78 26
105 14 17 20 31 14 31 -15 0 -6 71 13 100 14 23 54 26 80 6z m151 -165 c3 -4
17 -6 31 -3 34 6 70 -25 53 -45 -19 -24 -107 12 -108 45 0 14 16 16 24 3z
m-519 -162 c16 -16 -30 -10 -51 7 -18 15 -18 15 11 9 17 -4 34 -11 40 -16z
m-902 -898 c4 0 7 -10 7 -21 0 -23 -29 -27 -48 -8 -27 27 -11 38 41 29z m1334
-596 c0 -8 -6 -15 -14 -15 -17 0 -17 17 0 23 6 3 12 6 13 6 0 1 1 -6 1 -14z
m43 -46 c0 -5 -4 -9 -10 -9 -5 0 -10 7 -10 16 0 8 5 12 10 9 6 -3 10 -10 10
-16z m33 -20 c-7 -25 -30 -36 -46 -20 -8 8 -8 11 0 11 7 0 14 9 18 19 8 26 34
16 28 -10z m-2603 -129 c0 -5 -9 -10 -20 -10 -11 0 -20 5 -20 10 0 6 9 10 20
10 11 0 20 -4 20 -10z m2267 -27 c6 -17 -45 -29 -60 -14 -8 8 -7 11 6 11 9 0
17 5 17 11 0 14 32 7 37 -8z m-17 -53 c11 -8 7 -9 -15 -4 -37 8 -45 14 -19 14
10 0 26 -5 34 -10z m-2443 -6 c-3 -3 -12 -4 -19 -1 -8 3 -5 6 6 6 11 1 17 -2
13 -5z m784 -161 c17 -44 5 -220 -17 -244 -19 -21 -67 -25 -81 -6 -37 46 -14
189 40 244 18 18 35 33 40 33 4 0 12 -12 18 -27z m424 -104 c4 -11 23 -35 43
-55 20 -19 29 -32 20 -29 -11 5 -16 1 -15 -12 1 -11 -3 -17 -13 -14 -8 2 -23
5 -32 6 -22 2 -66 42 -84 77 -19 36 -19 36 19 46 39 11 54 6 62 -19z m-3285
-121 c0 -4 -7 -8 -15 -8 -8 0 -15 4 -15 8 0 5 7 9 15 9 8 0 15 -4 15 -9z
m3556 -99 c3 -5 1 -16 -4 -25 -8 -15 -11 -15 -30 4 -11 11 -22 19 -24 17 -2
-2 -4 4 -4 14 0 16 4 17 28 9 15 -6 31 -14 34 -19z"/>
<path d="M10932 491 c4 -13 18 -16 19 -4 0 4 -5 9 -11 12 -7 2 -11 -2 -8 -8z"/>
<path d="M3925 3236 c-50 -23 -81 -46 -108 -79 -42 -51 -88 -139 -108 -205
-11 -37 -17 -43 -53 -52 -23 -6 -71 -20 -107 -30 -37 -11 -100 -26 -141 -34
-40 -8 -99 -26 -131 -40 l-59 -26 7 -42 c13 -74 30 -113 53 -116 37 -6 264 92
408 174 l41 24 18 -40 c18 -41 73 -84 147 -115 99 -41 268 6 359 98 77 78 103
135 103 227 0 63 -4 85 -31 142 -34 74 -47 83 -166 123 -98 34 -146 32 -232
-9z m176 -27 c8 -17 17 -20 40 -15 20 4 44 -2 74 -16 35 -17 48 -31 64 -67 34
-80 41 -120 31 -172 -12 -63 -23 -82 -79 -142 -77 -83 -222 -135 -303 -108
-75 25 -128 68 -154 126 -30 69 -30 114 0 187 40 99 91 156 171 194 83 40 139
44 156 13z m-391 -348 c0 -9 -188 -121 -202 -121 -3 0 -11 14 -17 30 -12 35
-13 34 94 65 33 10 71 21 85 26 34 10 40 10 40 0z m-410 -156 c-7 -8 -10 -22
-6 -30 3 -8 3 -15 0 -15 -2 0 -8 10 -13 23 -6 16 -4 24 8 29 24 10 25 9 11 -7z"/>
<path d="M3976 3135 c-85 -30 -111 -49 -157 -116 -46 -69 -48 -93 -13 -180 31
-77 47 -96 99 -120 121 -56 281 26 352 179 28 59 27 85 -9 178 -14 37 -30 60
-48 69 -39 20 -151 15 -224 -10z m202 -32 c26 -24 52 -94 52 -141 0 -69 -72
-157 -162 -197 -48 -22 -69 -26 -102 -21 -59 10 -83 30 -110 89 -41 94 -41
104 0 164 29 43 49 59 102 84 55 27 72 30 113 25 29 -4 50 -2 54 4 9 15 30 12
53 -7z"/>
<path d="M4762 3248 c-19 -19 -14 -44 13 -77 25 -29 25 -30 7 -40 -13 -7 -22
-7 -30 1 -8 8 -13 7 -18 -5 -14 -37 32 -50 74 -21 29 20 28 46 -4 84 -15 17
-23 34 -19 38 4 4 10 1 12 -5 5 -15 33 -18 33 -4 0 38 -42 55 -68 29z"/>
<path d="M10032 3105 c-34 -69 -60 -125 -57 -125 7 0 127 241 123 246 -2 2
-32 -53 -66 -121z"/>
<path d="M12055 3222 c6 -5 21 -13 35 -17 17 -5 22 -4 15 3 -5 5 -21 13 -35
17 -17 5 -22 4 -15 -3z"/>
<path d="M9075 3178 c-32 -17 -65 -50 -65 -64 0 -7 21 -34 48 -59 44 -43 46
-47 29 -59 -10 -8 -27 -12 -37 -9 -27 7 -27 -33 0 -42 22 -7 47 4 74 34 25 28
15 63 -29 97 -49 37 -43 64 15 64 22 0 33 23 17 39 -14 14 -26 14 -52 -1z"/>
<path d="M12248 3163 c7 -3 16 -2 19 1 4 3 -2 6 -13 5 -11 0 -14 -3 -6 -6z"/>
<path d="M6243 3134 c-8 -23 14 -38 111 -75 45 -17 94 -38 110 -46 21 -11 31
-12 40 -3 17 18 -22 44 -120 81 -47 18 -88 38 -91 46 -7 18 -42 16 -50 -3z"/>
<path d="M12338 3113 c7 -3 16 -2 19 1 4 3 -2 6 -13 5 -11 0 -14 -3 -6 -6z"/>
<path d="M12378 3103 c7 -3 16 -2 19 1 4 3 -2 6 -13 5 -11 0 -14 -3 -6 -6z"/>
<path d="M11490 3085 c-7 -8 -9 -15 -4 -16 5 0 16 -2 24 -4 10 -1 16 5 17 16
2 23 -20 25 -37 4z"/>
<path d="M2058 3070 c-10 -9 -18 -22 -18 -28 0 -6 -10 -18 -22 -26 -12 -9 -19
-16 -14 -16 5 0 1 -11 -8 -25 -9 -13 -16 -32 -15 -42 0 -12 5 -8 14 12 8 17
14 26 15 21 0 -5 7 -3 15 4 9 7 14 18 12 24 -3 6 7 23 20 38 29 31 30 66 1 38z"/>
<path d="M5693 3068 c-14 -7 -32 -36 -50 -81 -15 -39 -38 -80 -52 -93 l-24
-22 31 -31 c41 -41 80 -41 128 1 30 26 35 37 31 62 -3 23 2 39 19 59 29 35 30
57 3 91 -22 27 -49 32 -86 14z m61 -44 c8 -21 -20 -54 -46 -54 -15 0 -17 5
-12 28 11 42 46 58 58 26z m-34 -124 c0 -19 -40 -50 -65 -50 -18 0 -19 2 -1
44 12 29 18 33 40 29 16 -3 26 -12 26 -23z"/>
<path d="M6227 3024 c-13 -13 -7 -34 10 -41 9 -4 54 -30 101 -60 47 -29 93
-53 104 -53 40 0 13 29 -82 88 -111 70 -123 76 -133 66z"/>
<path d="M8486 3005 c-10 -26 -6 -32 6 -10 12 19 12 19 19 -5 l8 -25 -2 24
c-2 29 -22 39 -31 16z"/>
<path d="M5886 2953 c-4 -4 -15 -25 -25 -48 -10 -22 -37 -61 -61 -88 -23 -26
-40 -54 -37 -61 8 -20 67 -47 89 -40 20 6 25 34 6 34 -41 1 -39 18 12 93 49
72 59 106 34 114 -5 2 -14 0 -18 -4z"/>
<path d="M6133 2924 c-8 -21 1 -27 87 -64 41 -17 92 -43 113 -57 27 -19 41
-23 49 -15 21 21 -2 42 -99 87 -54 25 -106 50 -115 55 -24 13 -28 13 -35 -6z"/>
<path d="M5905 2755 c-30 -29 -31 -59 -5 -102 16 -27 26 -33 56 -33 63 0 117
79 86 127 -10 15 -57 33 -88 33 -14 0 -36 -11 -49 -25z m75 -30 c0 -7 7 -18
16 -23 14 -8 14 -10 -1 -25 -35 -35 -85 -4 -70 43 8 24 55 28 55 5z"/>
<path d="M7973 2710 c-67 -41 -69 -97 -3 -123 46 -18 50 -34 15 -67 -22 -21
-29 -22 -46 -12 -22 14 -39 8 -39 -13 0 -18 57 -37 78 -26 25 13 59 53 66 77
8 26 -24 69 -59 78 -32 8 -32 31 1 53 21 13 30 14 45 5 25 -16 39 -15 39 2 0
15 -37 46 -55 46 -5 0 -24 -9 -42 -20z"/>
<path d="M6073 2680 c-28 -11 -39 -53 -24 -87 10 -23 16 -25 50 -19 34 5 39 4
34 -12 -2 -10 -19 -24 -38 -31 -47 -17 -58 -60 -19 -75 32 -12 70 21 87 76 30
98 30 102 3 131 -26 28 -54 33 -93 17z m62 -40 c7 -11 -42 -37 -51 -27 -4 3
-4 13 -1 22 7 17 42 21 52 5z"/>
<path d="M8356 2638 c-6 -31 -26 -223 -26 -253 0 -32 28 -33 34 -2 10 42 26
260 20 268 -10 16 -24 9 -28 -13z"/>
<path d="M5391 2637 c-25 -25 -2 -59 24 -37 8 7 15 18 15 25 0 18 -25 26 -39
12z"/>
<path d="M6293 2585 c-27 -19 -29 -43 -8 -71 21 -28 18 -40 -4 -20 -21 19 -41
14 -41 -9 0 -19 49 -55 75 -55 43 0 50 25 21 75 -28 47 -27 50 19 57 11 2 20
10 20 18 0 21 -55 24 -82 5z"/>
<path d="M8158 2548 c-40 -23 -59 -55 -51 -87 9 -34 39 -35 98 -2 l55 31 -2
-57 c-2 -46 0 -58 12 -58 12 0 16 17 18 78 3 71 1 80 -20 97 -30 25 -64 25
-110 -2z m72 -26 c0 -12 -80 -55 -88 -47 -10 10 46 55 69 55 10 0 19 -4 19 -8z"/>
<path d="M5564 2549 c-3 -6 0 -17 8 -25 13 -13 16 -13 27 0 7 8 10 20 6 26 -8
13 -32 13 -41 -1z"/>
<path d="M5776 2463 c-3 -4 -6 -15 -6 -25 0 -24 33 -21 38 3 3 17 -21 33 -32
22z"/>
<path d="M5320 2396 c0 -30 -7 -76 -16 -102 -18 -53 -8 -77 24 -58 22 14 101
115 102 131 0 25 -24 25 -46 0 l-23 -27 -3 52 c-2 41 -7 54 -20 56 -15 3 -18
-5 -18 -52z"/>
<path d="M8413 2408 c-58 -28 -39 -178 22 -178 32 0 64 45 46 63 -10 9 -16 8
-27 -7 -17 -24 -31 -13 -40 33 -7 32 -6 33 15 21 28 -14 67 -6 75 16 4 9 -1
27 -9 40 -17 26 -45 30 -82 12z m54 -34 c-3 -3 -12 -4 -19 -1 -8 3 -5 6 6 6
11 1 17 -2 13 -5z"/>
<path d="M10794 2376 c-6 -6 -8 -18 -6 -26 11 -32 104 -100 139 -100 7 0 13
10 13 23 0 27 -95 111 -116 103 -7 -3 -14 -1 -16 4 -2 4 -8 3 -14 -4z"/>
<path d="M5472 2343 c-7 -2 -26 -34 -42 -70 -34 -74 -29 -97 20 -108 39 -9 75
14 97 61 15 31 16 39 3 77 -12 33 -20 42 -40 44 -14 1 -31 -1 -38 -4z m48 -78
c0 -21 -31 -55 -51 -55 -23 0 -24 -3 2 56 20 44 23 46 35 29 8 -10 14 -24 14
-30z"/>
<path d="M5981 2341 c-17 -11 -7 -41 12 -41 19 0 40 26 32 40 -8 12 -25 13
-44 1z"/>
<path d="M8683 2318 c-30 -15 -30 -58 -1 -110 22 -39 22 -40 3 -54 -10 -8 -27
-12 -37 -8 -23 7 -39 -3 -31 -21 7 -20 67 -19 98 1 28 18 32 49 10 81 -8 11
-19 33 -25 47 -9 24 -7 28 16 36 26 10 28 33 3 37 -8 1 -24 -3 -36 -9z"/>
<path d="M6243 2243 c-7 -2 -13 -14 -13 -24 0 -16 6 -20 28 -17 19 2 27 9 27
23 0 20 -19 28 -42 18z"/>
<path d="M5593 2223 c-51 -26 -66 -79 -38 -133 18 -34 43 -38 84 -14 59 35 94
127 54 140 -10 3 -26 10 -35 15 -22 12 -26 11 -65 -8z m60 -47 c17 -13 16 -16
-13 -45 -36 -35 -45 -38 -54 -15 -10 25 -7 42 10 58 19 19 33 20 57 2z"/>
<path d="M1537 2112 c-15 -16 -17 -28 -12 -54 l8 -33 14 40 c18 53 14 74 -10
47z"/>
<path d="M7963 2103 c-21 -13 -53 -23 -70 -23 -44 0 -119 -30 -177 -70 -57
-38 -109 -114 -100 -145 18 -59 70 -62 186 -9 65 29 82 34 89 23 5 -8 19 -28
30 -46 27 -43 116 -113 144 -113 12 0 42 -7 66 -16 24 -9 80 -22 124 -29 44
-7 111 -19 148 -26 78 -15 93 -10 119 42 30 59 90 262 91 309 l2 45 -55 12
c-30 6 -104 12 -164 12 -63 1 -133 8 -170 17 -33 9 -98 21 -143 28 -79 11 -84
11 -120 -11z m247 -44 c19 -6 105 -15 190 -19 85 -4 163 -11 173 -15 24 -10
19 -35 -33 -199 -54 -166 -51 -164 -136 -147 -38 7 -103 19 -144 26 -200 36
-253 61 -316 146 -37 51 -40 59 -21 59 7 0 20 8 28 18 9 9 24 22 34 27 13 8
16 17 11 33 -9 26 -42 29 -72 8 -16 -13 -17 -18 -6 -35 7 -12 10 -21 8 -21 -2
0 -11 -3 -19 -6 -9 -3 -23 8 -37 31 -28 46 -50 33 -25 -15 9 -17 15 -34 13
-36 -2 -2 -33 -17 -69 -33 -123 -56 -177 -39 -125 40 29 43 98 93 157 114 51
18 54 18 40 1 -8 -10 -9 -16 -1 -21 6 -4 40 13 77 37 l66 44 86 -13 c47 -8
102 -19 121 -24z m-243 -85 c-3 -3 -12 -4 -19 -1 -8 3 -5 6 6 6 11 1 17 -2 13
-5z"/>
<path d="M5090 2108 c-31 -36 -137 -213 -167 -278 -19 -41 -44 -94 -56 -118
-17 -32 -19 -46 -11 -60 16 -26 418 -166 589 -206 55 -13 71 -14 81 -4 38 39
149 387 142 443 -3 25 -10 29 -73 45 -38 10 -110 34 -160 53 -49 19 -117 43
-150 52 -65 19 -150 58 -160 75 -8 14 -22 13 -35 -2z m85 -79 c17 -10 50 -23
75 -29 25 -7 104 -34 175 -60 72 -27 147 -51 168 -55 28 -6 36 -11 33 -24 -3
-9 -15 -54 -26 -101 -20 -81 -84 -256 -99 -273 -11 -11 -217 44 -356 96 -66
24 -145 52 -175 62 -66 21 -77 30 -62 48 7 8 21 40 32 72 21 60 31 79 117 212
57 88 56 87 118 52z"/>
<path d="M5219 1848 c-79 -99 -100 -131 -95 -144 4 -11 30 -14 110 -14 157 0
191 23 125 86 -17 16 -44 48 -60 72 -17 23 -33 42 -38 42 -4 0 -23 -19 -42
-42z"/>
<path d="M11277 1949 c7 -7 15 -10 18 -7 3 3 -2 9 -12 12 -14 6 -15 5 -6 -5z"/>
<path d="M1561 1917 c-2 -21 52 -107 84 -136 59 -51 61 -24 3 37 -29 32 -61
68 -70 82 -9 14 -17 21 -17 17z"/>
<path d="M10610 1836 c0 -13 7 -43 16 -67 8 -24 17 -60 20 -79 5 -36 28 -80
44 -80 25 0 14 78 -25 164 -12 28 -25 59 -28 69 -9 25 -27 21 -27 -7z"/>
<path d="M7829 1625 c-15 -34 -25 -44 -41 -42 -28 3 -35 -20 -8 -28 15 -5 19
-12 15 -23 -4 -10 -9 -29 -12 -44 -3 -16 -9 -28 -14 -28 -5 0 -9 -16 -9 -36 0
-56 22 -36 46 42 22 67 23 69 54 66 25 -2 31 1 28 15 -3 12 -12 17 -26 16 -26
-3 -27 3 -7 50 18 43 19 57 4 57 -5 0 -19 -20 -30 -45z"/>
<path d="M7550 1592 c0 -47 3 -63 13 -60 18 7 20 60 3 93 -16 30 -16 30 -16
-33z"/>
<path d="M7626 1543 c-18 -37 -56 -160 -56 -185 0 -35 22 -14 42 40 15 39 24
52 40 52 32 0 78 38 78 65 0 53 -80 74 -104 28z m71 -19 c6 -17 -20 -44 -43
-44 -9 0 -10 7 -1 30 12 33 34 39 44 14z"/>
<path d="M1732 1544 c-12 -8 -22 -10 -22 -5 0 6 -4 11 -10 11 -5 0 -10 -7 -10
-15 0 -8 7 -15 16 -15 11 0 15 -6 11 -20 -3 -11 -1 -22 4 -25 11 -8 49 17 49
32 0 6 5 13 12 15 15 5 3 38 -14 38 -8 0 -24 -7 -36 -16z"/>
<path d="M8627 1364 c-48 -96 -87 -177 -86 -182 0 -4 41 73 90 172 50 98 89
180 87 182 -2 2 -43 -76 -91 -172z"/>
<path d="M885 1510 c3 -5 8 -10 11 -10 2 0 4 5 4 10 0 6 -5 10 -11 10 -5 0 -7
-4 -4 -10z"/>
<path d="M8076 1473 c-11 -12 -6 -22 14 -28 22 -7 22 -14 -6 -92 -11 -30 -21
-43 -35 -43 -29 0 -23 -29 9 -36 15 -4 32 -11 39 -16 7 -6 14 -4 19 3 4 7 -1
18 -11 25 -13 10 -15 17 -7 26 5 7 17 36 25 63 10 36 19 49 31 47 19 -3 22 21
4 35 -17 13 -74 24 -82 16z"/>
<path d="M7870 1436 c0 -12 73 -56 93 -56 18 0 3 22 -30 45 -42 28 -63 32 -63
11z"/>
<path d="M1135 1320 c-3 -5 1 -10 10 -10 9 0 13 5 10 10 -3 6 -8 10 -10 10 -2
0 -7 -4 -10 -10z"/>
<path d="M8186 1313 c-3 -3 -6 -33 -6 -65 0 -43 3 -59 13 -56 6 3 13 14 15 25
4 26 37 57 51 48 16 -9 13 -36 -5 -56 -16 -17 -12 -39 6 -39 11 0 40 53 40 73
0 8 -8 25 -19 38 -16 21 -22 22 -45 11 -21 -9 -26 -9 -26 3 0 16 -14 27 -24
18z"/>
<path d="M1018 1303 c7 -3 16 -2 19 1 4 3 -2 6 -13 5 -11 0 -14 -3 -6 -6z"/>
<path d="M10574 1287 c3 -11 9 -30 12 -43 3 -13 10 -24 16 -24 12 0 0 38 -20
65 -13 18 -14 18 -8 2z"/>
<path d="M8370 1230 c-16 -16 -18 -24 -9 -44 11 -23 59 -54 59 -37 0 4 -9 18
-20 31 -22 26 -17 44 10 35 23 -7 38 14 19 26 -22 14 -37 11 -59 -11z"/>
<path d="M10823 1232 c-18 -2 -33 -6 -33 -8 0 -26 77 -107 92 -98 5 3 7 16 4
27 -3 12 0 27 6 34 7 9 7 13 -1 13 -6 0 -11 6 -11 14 0 17 -16 22 -57 18z"/>
<path d="M1337 1169 c7 -7 15 -10 18 -7 3 3 -2 9 -12 12 -14 6 -15 5 -6 -5z"/>
<path d="M1360 1122 c0 -17 27 -32 46 -26 16 5 16 4 4 -5 -13 -10 -13 -12 0
-21 8 -5 25 -10 36 -10 12 0 37 -3 55 -6 32 -5 33 -5 15 10 -11 9 -28 16 -39
16 -10 0 -26 9 -35 19 -18 21 -82 39 -82 23z"/>
<path d="M7785 1110 c3 -5 10 -10 16 -10 5 0 9 5 9 10 0 6 -7 10 -16 10 -8 0
-12 -4 -9 -10z"/>
<path d="M9688 923 c7 -3 16 -2 19 1 4 3 -2 6 -13 5 -11 0 -14 -3 -6 -6z"/>
<path d="M11120 832 c0 -15 28 -47 35 -40 11 11 -5 48 -21 48 -8 0 -14 -4 -14
-8z"/>
<path d="M11893 703 c-17 -6 -17 -33 0 -33 14 0 37 20 37 32 0 9 -18 9 -37 1z"/>
<path d="M3380 657 c0 -3 26 -24 58 -48 31 -24 62 -48 68 -54 12 -12 174 -123
274 -189 36 -23 174 -115 306 -204 168 -112 250 -162 270 -162 27 0 -63 62
-736 504 -249 164 -240 158 -240 153z"/>
<path d="M12140 650 c34 -11 60 -11 35 0 -11 5 -29 8 -40 8 -16 0 -15 -2 5 -8z"/>
<path d="M11866 634 c-9 -25 -7 -34 8 -34 19 0 28 14 20 34 -8 20 -20 20 -28
0z"/>
<path d="M7780 391 c0 -10 22 -31 32 -31 17 0 7 28 -12 33 -11 3 -20 2 -20 -2z"/>
</g>
</svg>
